<?xml version="1.0" encoding="utf-8"?>
<!-- Generator: Adobe Illustrator 16.0.0, SVG Export Plug-In . SVG Version: 6.00 Build 0)  -->
<!DOCTYPE svg PUBLIC "-//W3C//DTD SVG 1.1//EN" "http://www.w3.org/Graphics/SVG/1.1/DTD/svg11.dtd">
<svg version="1.1" id="Calque_1" xmlns="http://www.w3.org/2000/svg" xmlns:xlink="http://www.w3.org/1999/xlink" x="0px" y="0px"
	 width="169.723px" height="172.668px" viewBox="0 0 169.723 172.668" enable-background="new 0 0 169.723 172.668"
	 xml:space="preserve">
<path fill-rule="evenodd" clip-rule="evenodd" fill="#2DA362" d="M0,157.146V34.25c0-7.143,5.796-12.943,12.942-12.943h122.893
	L0,157.146z"/>
<path fill-rule="evenodd" clip-rule="evenodd" fill="#FDD94F" d="M0,159.725v-2.578L135.835,21.309h2.579
	c7.146,0,12.944,5.799,12.944,12.94v2.583L15.521,172.668h-2.579C5.796,172.668,0,166.869,0,159.725"/>
<polygon fill-rule="evenodd" clip-rule="evenodd" fill="#5686C2" points="15.521,172.668 75.68,112.512 135.835,172.668 "/>
<path fill-rule="evenodd" clip-rule="evenodd" fill="#FFFFFF" d="M135.835,172.668L74.758,111.59l15.524-15.521l61.077,61.078v2.578
	c0,7.143-5.8,12.943-12.945,12.943H135.835z"/>
<polygon fill-rule="evenodd" clip-rule="evenodd" fill="#C2C2C1" points="151.359,157.146 91.2,96.988 151.359,36.832 "/>
<path fill="#F0EFEF" d="M26.997,38.041c7.701-3.526,17.336-2.088,23.591,3.681c-1.956,1.994-3.967,3.943-5.977,5.884
	c-6.255-6.209-18.008-3.263-20.939,4.948c-3.835,8.081,2.536,18.705,11.552,18.821c5.9,0.688,11.784-3.264,13.029-9.141
	c-4.121,0.008-8.235-0.031-12.348,0.031c-0.116-2.535-0.132-5.08-0.078-7.624c6.882,0.179,13.934-0.394,20.715,0.278
	c0.518,5.033,0.162,10.377-2.544,14.792c-4.245,7.901-14.266,11.351-22.748,9.356C20.765,76.895,12.917,66.14,14.347,55.484
	C15.082,47.969,20.162,41.156,26.997,38.041"/>
<path fill="#DC4C3E" d="M124.922,0h4.92c12.264,0.703,24.253,6.693,31.687,16.549c4.868,6.227,7.584,13.953,8.194,21.801v2.913
	c-0.285,15.213-10.021,27.701-18.449,39.534c-9.464,13.371-18.208,27.943-20.632,44.424c-0.648,2.791,0.13,6.699-3.207,7.961
	c-0.784-0.611-1.697-1.117-2.248-1.971c-0.988-9.213-3.29-18.312-7.222-26.727c-4.46-9.803-10.67-18.662-16.979-27.332
	c-3.841-5.199-7.463-10.58-10.459-16.315c-4.708-8.595-6.459-18.752-4.535-28.396c1.577-7.615,5.562-14.67,11.078-20.125
	C104.503,5.049,114.554,0.65,124.922,0 M123.964,26.797c-5.817,1.298-10.7,6.443-11.19,12.466
	c-0.611,5.606,2.671,11.297,7.696,13.772c5.448,2.881,12.603,1.998,17.152-2.166c4.249-3.758,5.796-10.248,3.577-15.5
	C138.573,28.797,130.778,25.054,123.964,26.797"/>
<path fill="#812D27" d="M123.964,26.797c6.814-1.743,14.609,2,17.235,8.572c2.219,5.252,0.672,11.742-3.577,15.5
	c-4.55,4.164-11.704,5.047-17.152,2.166c-5.025-2.476-8.308-8.166-7.696-13.772C113.264,33.24,118.146,28.095,123.964,26.797"/>
</svg>
