<?xml version="1.0" encoding="utf-8"?>
<!-- Generator: Adobe Illustrator 16.0.0, SVG Export Plug-In . SVG Version: 6.00 Build 0)  -->
<!DOCTYPE svg PUBLIC "-//W3C//DTD SVG 1.1//EN" "http://www.w3.org/Graphics/SVG/1.1/DTD/svg11.dtd">
<svg version="1.1" id="Calque_1" xmlns="http://www.w3.org/2000/svg" xmlns:xlink="http://www.w3.org/1999/xlink" x="0px" y="0px"
	 width="221.634px" height="271.133px" viewBox="0 0 221.634 271.133" enable-background="new 0 0 221.634 271.133"
	 xml:space="preserve">
<g>
	<path fill="#FFFFFF" d="M0,0.671h9.036v53.127H21v8.366H0V0.671z"/>
	<path fill="#FFFFFF" d="M24.683,0.671h20.665v9.287H33.718v16.147h8.366v9.872h-8.366v16.9h11.629v9.287H24.683V0.671z"/>
	<path fill="#FFFFFF" d="M65.344,17.153c0-2.008-0.083-4.267-0.669-6.024c-0.586-1.673-1.506-2.844-2.929-2.844
		c-2.342,0.083-3.095,2.51-3.095,6.107c0,2.091,0.92,4.267,2.259,6.609c1.339,2.343,3.096,4.769,4.853,7.362
		c2.092,3.096,4.183,6.275,5.773,9.371c1.589,3.095,2.677,6.274,2.677,9.621c0,4.1-0.669,7.948-2.594,10.792
		c-1.924,2.845-5.02,4.686-9.956,4.686c-5.773,0-9.036-2.175-10.876-5.522c-1.84-3.347-2.259-7.781-2.259-12.382l8.869-0.836
		c0,2.593,0.083,5.187,0.753,7.111c0.585,2.008,1.589,3.347,3.514,3.347c2.677,0,3.681-2.845,3.681-6.777
		c0-2.008-1.004-4.351-2.342-6.777c-0.753-1.171-1.506-2.426-2.343-3.681c-1.757-2.51-3.681-5.354-5.689-8.45
		c-2.008-3.096-3.514-6.275-4.435-9.538c-0.502-1.59-0.753-3.263-0.753-4.936c0-3.347,0.753-6.944,2.677-9.705
		c1.924-2.677,4.853-4.602,9.12-4.685c5.438-0.084,8.617,2.175,10.374,5.438c1.757,3.347,2.259,7.446,2.259,10.876L65.344,17.153z"
		/>
	<path fill="#FFFFFF" d="M101.488,30.121l-0.752-2.844h-0.502v34.888h-8.283V0.671h8.031l8.785,32.043l0.753,2.845h0.502V0.671
		h8.282v61.493h-8.031L101.488,30.121z"/>
	<path fill="#FFFFFF" d="M149.01,0.671v48.86c-0.083,2.51-0.585,4.769-1.506,6.693c-0.753,1.673-1.925,3.263-3.598,4.518
		c-1.673,1.339-3.933,2.092-6.944,2.092s-5.354-0.753-7.027-2.092c-1.674-1.255-2.761-2.845-3.514-4.518
		c-0.92-1.924-1.422-4.184-1.506-6.693V0.671h9.035v48.86c0,1.757,0.418,2.928,1.256,3.849c0.418,0.418,1.004,0.669,1.756,0.669
		c1.59,0,2.344-1.004,2.678-2.259c0.251-0.585,0.334-1.338,0.334-2.259V0.671H149.01z"/>
	<path fill="#FFFFFF" d="M155.623,0.671h9.035v61.493h-9.035V0.671z"/>
	<path fill="#FFFFFF" d="M168.171,9.958V0.671h26.104v9.287h-8.533v52.207h-9.036V9.958H168.171z"/>
	<path fill="#FFFFFF" d="M212.765,17.153c0-2.008-0.083-4.267-0.668-6.024c-0.586-1.673-1.507-2.844-2.93-2.844
		c-2.342,0.083-3.095,2.51-3.095,6.107c0,2.091,0.921,4.267,2.259,6.609c1.339,2.343,3.096,4.769,4.853,7.362
		c2.092,3.096,4.183,6.275,5.772,9.371c1.59,3.095,2.678,6.274,2.678,9.621c0,4.1-0.67,7.948-2.594,10.792
		c-1.924,2.845-5.02,4.686-9.956,4.686c-5.772,0-9.036-2.175-10.876-5.522c-1.841-3.347-2.26-7.781-2.26-12.382l8.869-0.836
		c0,2.593,0.084,5.187,0.753,7.111c0.585,2.008,1.589,3.347,3.514,3.347c2.677,0,3.681-2.845,3.681-6.777
		c0-2.008-1.004-4.351-2.342-6.777c-0.753-1.171-1.506-2.426-2.343-3.681c-1.757-2.51-3.681-5.354-5.688-8.45
		c-2.009-3.096-3.515-6.275-4.436-9.538c-0.502-1.59-0.752-3.263-0.752-4.936c0-3.347,0.752-6.944,2.677-9.705
		c1.925-2.677,4.853-4.602,9.12-4.685c5.438-0.084,8.617,2.175,10.373,5.438c1.758,3.347,2.26,7.446,2.26,10.876L212.765,17.153z"/>
	<path fill="#FFFFFF" d="M31.48,153.975v10.983c-0.109,3.263-0.761,6.198-1.958,8.7c-0.979,2.174-2.501,4.24-4.676,5.871
		c-2.175,1.74-5.111,2.719-9.025,2.719c-3.915,0-6.959-0.979-9.135-2.719c-2.175-1.631-3.588-3.697-4.567-5.871
		c-1.196-2.502-1.848-5.438-1.957-8.7v-47.086c0.109-3.154,0.761-6.089,1.957-8.59c0.979-2.175,2.393-4.35,4.567-5.981
		c2.175-1.631,5.22-2.718,9.135-2.718c3.915,0,6.851,1.087,9.025,2.718c2.175,1.631,3.697,3.807,4.676,5.981
		c1.197,2.501,1.849,5.437,1.958,8.59v10.983H20.497v-10.983c0-2.175-0.544-3.697-1.74-5.002c-0.544-0.543-1.523-0.87-2.719-0.87
		c-2.066,0-3.045,1.522-3.588,2.936c-0.327,0.87-0.436,1.849-0.544,2.936v47.086c0.108,2.284,0.761,3.807,1.849,5.002
		c0.543,0.545,1.305,0.87,2.284,0.87c2.501,0,3.479-1.305,4.023-2.937c0.326-0.761,0.435-1.739,0.435-2.936v-10.983H31.48z"/>
	<path fill="#FFFFFF" d="M35.285,181.379l12.07-79.927h14.354l12.071,79.927H62.361l-2.175-16.312H48.877l-2.175,16.312H35.285z
		 M55.185,127.441l-0.327-2.066h-0.652l-0.326,2.066l-3.372,25.229h8.047L55.185,127.441z"/>
	<path fill="#FFFFFF" d="M110.424,101.452v63.506c-0.107,3.263-0.761,6.198-1.958,8.7c-0.979,2.174-2.501,4.24-4.676,5.871
		c-2.174,1.74-5.11,2.719-9.025,2.719c-3.915,0-6.959-0.979-9.134-2.719c-2.175-1.631-3.589-3.697-4.567-5.871
		c-1.196-2.502-1.849-5.438-1.958-8.7v-63.506h11.745v63.506c0,2.284,0.544,3.807,1.631,5.002c0.544,0.545,1.306,0.87,2.284,0.87
		c2.066,0,3.044-1.305,3.479-2.937c0.326-0.761,0.436-1.739,0.436-2.936v-63.506H110.424z"/>
	<path fill="#FFFFFF" d="M138.478,122.874c0-2.61-0.107-5.546-0.868-7.83c-0.762-2.175-1.958-3.697-3.807-3.697
		c-3.046,0.109-4.024,3.262-4.024,7.938c0,2.719,1.196,5.545,2.937,8.59s4.023,6.198,6.308,9.57
		c2.719,4.023,5.437,8.155,7.504,12.18c2.065,4.023,3.479,8.155,3.479,12.505c0,5.328-0.871,10.331-3.372,14.028
		c-2.501,3.696-6.523,6.089-12.94,6.089c-7.503,0-11.743-2.826-14.137-7.177c-2.392-4.349-2.937-10.113-2.937-16.095l11.528-1.087
		c0,3.371,0.107,6.742,0.979,9.243c0.762,2.61,2.065,4.351,4.566,4.351c3.48,0,4.784-3.697,4.784-8.81
		c0-2.608-1.304-5.654-3.044-8.808c-0.979-1.521-1.958-3.153-3.044-4.785c-2.283-3.262-4.785-6.959-7.396-10.983
		c-2.609-4.023-4.566-8.156-5.763-12.396c-0.653-2.066-0.979-4.241-0.979-6.416c0-4.35,0.979-9.026,3.48-12.614
		c2.501-3.48,6.306-5.981,11.854-6.09c7.067-0.109,11.2,2.827,13.483,7.068c2.283,4.35,2.937,9.678,2.937,14.137L138.478,122.874z"
		/>
	<path fill="#FFFFFF" d="M175.775,122.874c0-2.61-0.107-5.546-0.868-7.83c-0.762-2.175-1.958-3.697-3.807-3.697
		c-3.046,0.109-4.024,3.262-4.024,7.938c0,2.719,1.196,5.545,2.937,8.59s4.023,6.198,6.308,9.57
		c2.719,4.023,5.437,8.155,7.504,12.18c2.065,4.023,3.479,8.155,3.479,12.505c0,5.328-0.871,10.331-3.372,14.028
		c-2.501,3.696-6.523,6.089-12.94,6.089c-7.503,0-11.743-2.826-14.137-7.177c-2.392-4.349-2.937-10.113-2.937-16.095l11.528-1.087
		c0,3.371,0.107,6.742,0.979,9.243c0.762,2.61,2.065,4.351,4.566,4.351c3.48,0,4.784-3.697,4.784-8.81
		c0-2.608-1.304-5.654-3.044-8.808c-0.979-1.521-1.958-3.153-3.044-4.785c-2.283-3.262-4.785-6.959-7.396-10.983
		c-2.609-4.023-4.566-8.156-5.763-12.396c-0.653-2.066-0.979-4.241-0.979-6.416c0-4.35,0.979-9.026,3.48-12.614
		c2.501-3.48,6.307-5.981,11.854-6.09c7.067-0.109,11.2,2.827,13.483,7.068c2.283,4.35,2.937,9.678,2.937,14.137L175.775,122.874z"
		/>
	<path fill="#FFFFFF" d="M193.608,101.452h26.859v12.07h-15.115v20.988h10.874v12.832h-10.874v21.966h15.115v12.071h-26.859V101.452
		z"/>
	<path fill="#FFFFFF" d="M13.32,228.614l-0.979-3.697h-0.653v45.345H0.923v-79.925h10.439l11.418,41.647l0.979,3.697h0.652v-45.345
		h10.766v79.925H24.738L13.32,228.614z"/>
	<path fill="#FFFFFF" d="M102.704,253.842c-0.107,3.262-0.761,6.198-1.958,8.699c-0.979,2.176-2.501,4.241-4.675,5.873
		c-2.175,1.74-5.111,2.719-9.026,2.719c-3.915,0-6.959-0.979-9.134-2.719c-2.175-1.632-3.589-3.697-4.567-5.873
		c-1.196-2.501-1.849-5.438-1.957-8.699v-47.085c0.108-3.154,0.761-6.091,1.957-8.592c0.979-2.174,2.393-4.349,4.567-5.98
		c2.175-1.631,5.22-2.719,9.134-2.719c3.915,0,6.851,1.088,9.026,2.719c2.174,1.632,3.696,3.807,4.675,5.98
		c1.197,2.501,1.851,5.438,1.958,8.592V253.842z M90.96,206.757c0-2.176-0.435-3.697-1.523-5.002
		c-0.543-0.544-1.413-0.871-2.392-0.871c-2.066,0-3.044,1.522-3.479,2.937c-0.327,0.87-0.435,1.848-0.435,2.937v47.085
		c0,2.283,0.544,3.807,1.631,5.002c0.544,0.544,1.305,0.871,2.284,0.871c2.066,0,3.045-1.306,3.48-2.937
		c0.326-0.761,0.435-1.74,0.435-2.937V206.757z"/>
	<path fill="#FFFFFF" d="M138.913,190.337h11.745v79.925h-11.745V190.337z"/>
	<path fill="#FFFFFF" d="M208.616,270.262l-6.091-33.709h-3.153v33.709h-11.744v-79.925h11.744c14.028,0,20.009,7.938,20.009,23.053
		c0,7.938-2.065,15.115-6.523,18.16l7.503,38.712H208.616z M199.372,225.678c1.631,0,3.807-0.218,5.547-1.74
		c1.739-1.521,3.152-4.458,3.152-10.113c0-5.654-1.413-8.699-3.152-10.222c-1.74-1.522-3.916-1.631-5.547-1.631V225.678z"/>
</g>
<g>
	<path fill="#FFFFFF" d="M123.916,67.156V90.37c-0.04,1.192-0.278,2.266-0.716,3.18c-0.357,0.795-0.914,1.55-1.709,2.146
		c-0.795,0.636-1.868,0.994-3.299,0.994c-1.432,0-2.545-0.357-3.34-0.994c-0.795-0.596-1.311-1.352-1.669-2.146
		c-0.437-0.914-0.676-1.987-0.716-3.18V67.156h4.293V90.37c0,0.834,0.199,1.391,0.597,1.828c0.198,0.199,0.478,0.318,0.835,0.318
		c0.755,0,1.113-0.477,1.271-1.073c0.119-0.278,0.159-0.636,0.159-1.073V67.156H123.916z"/>
	<path fill="#FFFFFF" d="M97.719,96.372V67.156h3.379c3.975,0,6.121,0.795,7.273,3.021c1.113,2.226,1.271,5.883,1.271,11.607
		c0,5.724-0.158,9.341-1.271,11.567c-1.152,2.226-3.299,3.021-7.273,3.021H97.719z M102.012,92.079c1.471,0,2.305-0.159,2.742-1.59
		c0.199-0.676,0.357-1.709,0.397-3.101s0.04-3.259,0.04-5.645c0-2.385,0-4.253-0.04-5.644c-0.04-1.352-0.198-2.385-0.397-3.101
		c-0.438-1.391-1.271-1.55-2.742-1.55V92.079z"/>
</g>
</svg>
