<?xml version="1.0" encoding="utf-8"?>
<!-- Generator: Adobe Illustrator 16.0.0, SVG Export Plug-In . SVG Version: 6.00 Build 0)  -->
<!DOCTYPE svg PUBLIC "-//W3C//DTD SVG 1.1//EN" "http://www.w3.org/Graphics/SVG/1.1/DTD/svg11.dtd">
<svg version="1.1" id="Calque_1" xmlns="http://www.w3.org/2000/svg" xmlns:xlink="http://www.w3.org/1999/xlink" x="0px" y="0px"
	 width="221.634px" height="271.133px" viewBox="0 0 221.634 271.133" enable-background="new 0 0 221.634 271.133"
	 xml:space="preserve">
<g>
	<g>
		<g>
			<polygon fill="none" stroke="#FFFFFF" stroke-miterlimit="10" points="0.5,61.665 0.5,1.171 8.536,1.171 8.536,54.298 
				20.5,54.298 20.5,61.665 			"/>
		</g>
		<g>
			<polygon fill="none" stroke="#FFFFFF" stroke-miterlimit="10" points="25.183,61.665 25.183,1.171 44.848,1.171 44.848,9.458 
				33.218,9.458 33.218,26.605 41.584,26.605 41.584,35.478 33.218,35.478 33.218,53.378 44.848,53.378 44.848,61.665 			"/>
		</g>
		<g>
			<path fill="none" stroke="#FFFFFF" stroke-miterlimit="10" d="M61.663,62.334c-5.076,0-8.49-1.722-10.438-5.263
				c-1.87-3.401-2.174-7.97-2.195-11.687l7.869-0.742c0.011,2.294,0.113,4.81,0.779,6.726c0.719,2.47,2.026,3.683,3.986,3.683
				c1.907,0,4.181-1.263,4.181-7.277c0-1.839-0.742-4.004-2.404-7.019c-0.306-0.477-0.594-0.938-0.887-1.406
				c-0.474-0.757-0.96-1.534-1.478-2.311c-1.885-2.693-3.796-5.531-5.686-8.445c-2.021-3.114-3.492-6.277-4.373-9.401
				c-0.489-1.548-0.734-3.159-0.734-4.8c0-3.68,0.919-7.025,2.587-9.419c2.079-2.893,5.014-4.399,8.719-4.471L61.871,0.5
				c4.548,0,7.792,1.742,9.642,5.177c1.726,3.287,2.158,7.272,2.197,10.185l-7.868,0.742c-0.017-1.887-0.135-3.959-0.692-5.633
				c-0.741-2.117-1.885-3.186-3.403-3.186c-3.595,0.128-3.595,5.005-3.595,6.607c0,1.928,0.717,4.043,2.325,6.857
				c1.024,1.792,2.276,3.612,3.602,5.539c0.419,0.609,0.845,1.228,1.271,1.856c1.928,2.854,4.122,6.163,5.742,9.319
				c1.789,3.483,2.622,6.468,2.622,9.393c0,4.516-0.844,8.053-2.508,10.512C69.172,60.873,66.051,62.334,61.663,62.334z"/>
		</g>
		<g>
			<polygon fill="none" stroke="#FFFFFF" stroke-miterlimit="10" points="110.655,61.665 101.97,29.989 101.121,26.777 
				99.734,26.777 99.734,61.665 92.451,61.665 92.451,1.171 99.6,1.171 108.285,32.847 109.135,36.06 110.522,36.06 110.522,1.171 
				117.804,1.171 117.804,61.665 			"/>
		</g>
		<g>
			<path fill="none" stroke="#FFFFFF" stroke-miterlimit="10" d="M136.962,62.334c-2.812,0-5.07-0.667-6.715-1.982
				c-1.446-1.084-2.545-2.499-3.37-4.332c-0.89-1.861-1.38-4.046-1.462-6.505V1.171h8.035v48.36c0,1.816,0.44,3.146,1.386,4.185
				c0.55,0.551,1.279,0.833,2.126,0.833c1.123,0,2.582-0.457,3.161-2.631c0.235-0.536,0.351-1.293,0.351-2.387V1.171h8.036v48.36
				c-0.081,2.442-0.571,4.627-1.457,6.478c-0.79,1.755-1.947,3.209-3.446,4.333C141.928,61.686,139.758,62.334,136.962,62.334z"/>
		</g>
		<g>
			<rect x="156.123" y="1.171" fill="none" stroke="#FFFFFF" stroke-miterlimit="10" width="8.035" height="60.493"/>
		</g>
		<g>
			<polygon fill="none" stroke="#FFFFFF" stroke-miterlimit="10" points="177.206,61.665 177.206,9.458 168.671,9.458 
				168.671,1.171 193.775,1.171 193.775,9.458 185.242,9.458 185.242,61.665 			"/>
		</g>
		<g>
			<path fill="none" stroke="#FFFFFF" stroke-miterlimit="10" d="M209.084,62.334c-5.077,0-8.491-1.722-10.438-5.263
				c-1.871-3.402-2.176-7.971-2.197-11.687l7.869-0.742c0.012,2.293,0.113,4.809,0.779,6.726c0.72,2.47,2.025,3.683,3.986,3.683
				c1.907,0,4.181-1.263,4.181-7.277c0-1.839-0.741-4.003-2.404-7.018c-0.305-0.477-0.592-0.937-0.885-1.404
				c-0.475-0.758-0.961-1.536-1.479-2.313c-1.881-2.687-3.791-5.525-5.685-8.445c-2.021-3.113-3.492-6.276-4.374-9.401
				c-0.488-1.546-0.733-3.156-0.733-4.8c0-3.681,0.919-7.026,2.587-9.419c2.079-2.893,5.015-4.399,8.72-4.471l0.282-0.002
				c4.548,0,7.792,1.742,9.641,5.177c1.727,3.287,2.158,7.271,2.197,10.185l-7.868,0.742c-0.017-1.887-0.135-3.96-0.691-5.632
				c-0.741-2.117-1.886-3.187-3.404-3.187c-3.595,0.128-3.595,5.005-3.595,6.607c0,1.927,0.717,4.042,2.324,6.857
				c1.024,1.792,2.277,3.612,3.603,5.539c0.42,0.609,0.845,1.228,1.271,1.856c1.928,2.853,4.12,6.16,5.742,9.319
				c1.789,3.483,2.622,6.468,2.622,9.393c0,4.515-0.844,8.052-2.508,10.512C216.594,60.873,213.473,62.334,209.084,62.334z"/>
		</g>
		<g>
			<path fill="none" stroke="#FFFFFF" stroke-miterlimit="10" d="M15.821,181.748c-3.69,0-6.658-0.878-8.822-2.609
				c-1.897-1.423-3.34-3.279-4.424-5.686c-1.164-2.436-1.806-5.296-1.914-8.512l0-47.07c0.108-3.13,0.75-5.954,1.908-8.375
				c1.138-2.528,2.581-4.42,4.416-5.797c2.285-1.713,5.34-2.618,8.835-2.618c3.473,0,6.409,0.881,8.726,2.618
				c1.892,1.419,3.455,3.42,4.52,5.787c1.163,2.431,1.806,5.254,1.915,8.402l0,10.466h-9.983v-10.483c0-2.28-0.577-3.927-1.871-5.34
				c-0.662-0.662-1.781-1.032-3.087-1.032c-1.86,0-3.224,1.096-4.055,3.257c-0.339,0.904-0.457,1.881-0.575,3.065l-0.002,47.136
				c0.108,2.284,0.736,3.973,1.979,5.339c0.679,0.682,1.591,1.033,2.653,1.033c3.052,0,4.029-1.871,4.498-3.278
				c0.314-0.729,0.461-1.694,0.461-3.094v-10.483h9.983v10.483c-0.107,3.2-0.75,6.061-1.909,8.484
				c-1.036,2.302-2.557,4.211-4.524,5.687C22.34,180.895,19.49,181.748,15.821,181.748z"/>
		</g>
		<g>
			<path fill="none" stroke="#FFFFFF" stroke-miterlimit="10" d="M62.799,180.879l-2.175-16.312H48.439l-2.175,16.312H35.866
				l11.919-78.927h13.494l11.92,78.927H62.799z M53.386,127.363l-3.449,25.807h9.19l-3.447-25.795l-0.395-2.5h-1.507L53.386,127.363
				z"/>
		</g>
		<g>
			<path fill="none" stroke="#FFFFFF" stroke-miterlimit="10" d="M94.765,181.748c-3.69,0-6.658-0.878-8.822-2.609
				c-1.898-1.424-3.341-3.28-4.423-5.686c-1.165-2.436-1.807-5.296-1.915-8.512l0-62.99h10.745v63.006
				c0,2.353,0.543,3.999,1.761,5.338c0.68,0.683,1.592,1.034,2.654,1.034c2.015,0,3.385-1.144,3.963-3.308
				c0.306-0.699,0.452-1.666,0.452-3.064v-63.006h10.744v63.006c-0.105,3.198-0.748,6.058-1.909,8.484
				c-1.036,2.302-2.557,4.211-4.524,5.687C101.285,180.895,98.435,181.748,94.765,181.748z"/>
		</g>
		<g>
			<path fill="none" stroke="#FFFFFF" stroke-miterlimit="10" d="M133.694,181.748c-6.657,0-11.138-2.263-13.698-6.918
				c-2.471-4.492-2.854-10.525-2.874-15.398l10.528-0.993c0.011,3.016,0.13,6.347,1.005,8.858c0.918,3.146,2.568,4.687,5.039,4.687
				c2.41,0,5.284-1.615,5.284-9.31c0-2.366-0.958-5.156-3.106-9.049c-0.397-0.621-0.778-1.229-1.165-1.849
				c-0.609-0.974-1.235-1.973-1.9-2.973c-2.457-3.51-4.941-7.2-7.392-10.979c-2.634-4.061-4.552-8.185-5.701-12.26
				c-0.64-2.021-0.961-4.129-0.961-6.28c0-4.813,1.204-9.191,3.391-12.328c2.732-3.802,6.587-5.781,11.453-5.876l0.368-0.003
				c5.972,0,10.233,2.291,12.665,6.808c2.285,4.354,2.835,9.632,2.875,13.445l-10.528,0.993c-0.016-2.486-0.159-5.238-0.892-7.438
				c-0.939-2.683-2.379-4.039-4.281-4.039c-4.524,0.162-4.524,6.391-4.524,8.438c0,2.479,0.926,5.205,3.002,8.838
				c1.33,2.326,2.957,4.691,4.68,7.194c0.544,0.791,1.097,1.594,1.648,2.408c2.508,3.712,5.361,8.017,7.474,12.128
				c2.336,4.551,3.424,8.452,3.424,12.276c0,5.899-1.105,10.524-3.286,13.748C143.548,179.828,139.451,181.748,133.694,181.748z"/>
		</g>
		<g>
			<path fill="none" stroke="#FFFFFF" stroke-miterlimit="10" d="M170.991,181.748c-6.657,0-11.138-2.263-13.698-6.918
				c-2.471-4.492-2.854-10.525-2.874-15.398l10.528-0.993c0.011,3.016,0.13,6.347,1.005,8.858c0.918,3.146,2.568,4.687,5.039,4.687
				c2.41,0,5.284-1.615,5.284-9.31c0-2.366-0.958-5.156-3.106-9.049c-0.397-0.621-0.778-1.229-1.165-1.849
				c-0.609-0.974-1.235-1.973-1.9-2.973c-2.457-3.51-4.941-7.2-7.392-10.979c-2.634-4.061-4.552-8.185-5.701-12.26
				c-0.64-2.021-0.961-4.129-0.961-6.28c0-4.813,1.204-9.191,3.391-12.328c2.732-3.802,6.587-5.781,11.453-5.876l0.368-0.003
				c5.972,0,10.233,2.291,12.665,6.808c2.285,4.354,2.835,9.632,2.875,13.445l-10.528,0.993c-0.016-2.486-0.159-5.238-0.892-7.438
				c-0.939-2.683-2.379-4.039-4.281-4.039c-4.524,0.162-4.524,6.391-4.524,8.438c0,2.479,0.926,5.205,3.002,8.838
				c1.33,2.326,2.957,4.691,4.68,7.194c0.544,0.791,1.097,1.594,1.648,2.408c2.508,3.712,5.361,8.017,7.474,12.128
				c2.336,4.551,3.424,8.452,3.424,12.276c0,5.899-1.105,10.524-3.286,13.748C180.845,179.828,176.748,181.748,170.991,181.748z"/>
		</g>
		<g>
			<polygon fill="none" stroke="#FFFFFF" stroke-miterlimit="10" points="194.108,180.879 194.108,101.952 219.967,101.952 
				219.967,113.022 204.852,113.022 204.852,135.01 215.726,135.01 215.726,146.842 204.852,146.842 204.852,169.808 
				219.967,169.808 219.967,180.879 			"/>
		</g>
		<g>
			<polygon fill="none" stroke="#FFFFFF" stroke-miterlimit="10" points="25.119,269.762 13.803,228.482 12.726,224.417 
				11.188,224.417 11.188,269.762 1.423,269.762 1.423,190.837 10.981,190.837 22.298,232.116 23.375,236.182 24.912,236.182 
				24.912,190.837 34.677,190.837 34.677,269.762 			"/>
		</g>
		<g>
			<path fill="none" stroke="#FFFFFF" stroke-miterlimit="10" d="M87.045,270.633c-3.69,0-6.658-0.878-8.822-2.609
				c-1.899-1.425-3.342-3.282-4.424-5.688c-1.165-2.435-1.807-5.294-1.914-8.511l0-47.068c0.108-3.131,0.75-5.955,1.908-8.376
				c1.137-2.526,2.58-4.419,4.417-5.796c2.284-1.714,5.339-2.619,8.834-2.619c3.473,0,6.409,0.881,8.726,2.619
				c1.892,1.42,3.454,3.42,4.519,5.785c1.165,2.434,1.808,5.257,1.914,8.403v47.068c-0.105,3.198-0.748,6.058-1.909,8.483
				c-1.035,2.301-2.555,4.211-4.524,5.689C93.564,269.779,90.714,270.633,87.045,270.633z M87.045,200.384
				c-1.899,0-3.305,1.168-3.958,3.289c-0.309,0.82-0.457,1.81-0.457,3.084v47.085c0,2.353,0.543,3.999,1.761,5.338
				c0.682,0.684,1.594,1.035,2.654,1.035c2.016,0,3.386-1.144,3.963-3.308c0.306-0.699,0.452-1.665,0.452-3.065v-47.085
				c0-2.353-0.49-3.944-1.639-5.322C89.145,200.755,88.145,200.384,87.045,200.384z"/>
		</g>
		<g>
			<rect x="139.413" y="190.837" fill="none" stroke="#FFFFFF" stroke-miterlimit="10" width="10.745" height="78.925"/>
		</g>
		<g>
			<path fill="none" stroke="#FFFFFF" stroke-miterlimit="10" d="M209.034,269.762l-6.091-33.709h-4.071v33.709h-10.744v-78.925
				h11.244c13.31,0,19.509,7.166,19.509,22.553c0,8.542-2.298,15.011-6.306,17.747l-0.271,0.186l7.45,38.439H209.034z
				 M198.872,226.178h0.5c1.608,0,3.967-0.193,5.876-1.864c2.205-1.929,3.323-5.458,3.323-10.489c0-5.103-1.118-8.668-3.323-10.598
				c-1.763-1.542-3.865-1.755-5.876-1.755h-0.5V226.178z"/>
		</g>
	</g>
</g>
<g>
	<g>
		<g>
			<path fill="none" stroke="#FFFFFF" stroke-miterlimit="10" d="M118.192,96.19c-1.276,0-2.295-0.297-3.027-0.884
				c-0.656-0.493-1.151-1.131-1.525-1.962c-0.41-0.857-0.634-1.86-0.672-2.991V67.656h3.293V90.37c0,0.932,0.23,1.619,0.727,2.165
				c0.319,0.321,0.73,0.482,1.205,0.482c0.885,0,1.508-0.513,1.755-1.445c0.114-0.254,0.176-0.646,0.176-1.202V67.656h3.293V90.37
				c-0.038,1.116-0.262,2.119-0.667,2.964c-0.359,0.798-0.882,1.455-1.558,1.962C120.435,95.901,119.458,96.19,118.192,96.19z"/>
		</g>
		<g>
			<path fill="none" stroke="#FFFFFF" stroke-miterlimit="10" d="M98.219,95.872V67.656h2.879c3.89,0,5.805,0.771,6.829,2.751
				c1.027,2.054,1.216,5.443,1.216,11.377c0,5.907-0.188,9.283-1.219,11.343c-1.021,1.973-2.937,2.745-6.826,2.745H98.219z
				 M101.512,92.579h0.5c1.488,0,2.67-0.143,3.221-1.944c0.236-0.803,0.381-1.919,0.419-3.232c0.04-1.398,0.04-3.278,0.04-5.659
				s0-4.26-0.04-5.658c-0.038-1.266-0.182-2.379-0.416-3.221c-0.558-1.773-1.789-1.916-3.224-1.916h-0.5V92.579z"/>
		</g>
	</g>
</g>
</svg>
