<?xml version="1.0" encoding="UTF-8" standalone="no"?><!DOCTYPE svg PUBLIC "-//W3C//DTD SVG 1.1//EN" "http://www.w3.org/Graphics/SVG/1.1/DTD/svg11.dtd"><svg width="100%" height="100%" viewBox="0 0 2022 1770" version="1.1" xmlns="http://www.w3.org/2000/svg" xmlns:xlink="http://www.w3.org/1999/xlink" xml:space="preserve" xmlns:serif="http://www.serif.com/" style="fill-rule:evenodd;clip-rule:evenodd;stroke-linejoin:round;stroke-miterlimit:2;"><rect id="Plan-de-travail4" serif:id="Plan de travail4" x="-0" y="0" width="2021.8" height="1769.25" style="fill:none;"/><clipPath id="_clip1"><rect x="-0" y="0" width="2021.8" height="1769.25"/></clipPath><g clip-path="url(#_clip1)"><g><g transform="matrix(2.08333,0,0,2.08333,-172.63,-192.584)"><clipPath id="_clip2"><path d="M204.33,435.24l-8.562,-32.376l-5.708,0l-0,397.076l-94.286,0l-0,-699.88l91.428,-0l99.897,364.699l8.562,32.375l5.708,0l0,-397.074l94.286,-0l-0,699.88l-91.429,0l-99.896,-364.7Zm504.658,124.7l0,96.191c-0.952,28.571 -6.667,54.286 -17.143,76.19c-8.571,19.048 -21.905,37.143 -40.952,51.429c-19.048,15.238 -44.752,23.81 -78.983,23.81c-34.231,-0 -60.898,-8.572 -79.946,-23.81c-19.047,-14.286 -31.428,-32.381 -40,-51.429c-10.476,-21.904 -16.19,-47.619 -17.143,-76.19l0,-412.262c0.953,-27.619 6.667,-53.333 17.143,-75.238c8.572,-19.048 20.953,-38.095 40,-52.381c19.048,-14.286 45.715,-23.81 79.946,-23.81c34.231,0 59.935,9.524 78.983,23.81c19.047,14.286 32.381,33.333 40.952,52.381c10.476,21.905 16.191,47.619 17.143,75.238l0,96.191l-96.19,-0l-0,-96.191c-0,-19.048 -4.755,-32.381 -15.215,-43.809c-4.754,-4.762 -13.312,-7.62 -23.771,-7.62c-18.067,0 -26.625,13.334 -31.379,25.715c-2.853,7.619 -3.804,16.19 -4.754,25.714l-0,412.262c0.95,20 6.656,33.333 16.164,43.809c4.755,4.762 11.411,7.62 19.969,7.62c21.87,-0 30.427,-11.429 35.182,-25.715c2.852,-6.666 3.804,-15.238 3.804,-25.714l-0,-96.191l96.19,0Zm140.104,-124.7l-8.562,-32.376l-5.709,0l0,397.076l-94.285,0l-0,-699.88l91.428,-0l99.897,364.699l8.562,32.375l5.708,0l-0,-397.074l94.286,-0l-0,699.88l-91.429,0l-99.896,-364.7Z" clip-rule="nonzero"/></clipPath><g clip-path="url(#_clip2)"><g id="Calque1" transform="matrix(1,0,0,1,-13.0119,-105)"><g><g transform="matrix(1,0,0,1,20,-30)"><path d="M20,760c-0,-0 298.894,-190 460,-190c309.719,-0 560,190 560,190l-0,200l-1020,-0l-0,-200Z" style="fill:#fff;"/></g><g transform="matrix(1.4568,0,0,1,-159.206,31.1784)"><path d="M352.5,462.354l12.5,92.646l-25,0l12.5,-92.646Z" style="fill:#fff;"/></g><g transform="matrix(1.4568,0,0,1,-140.996,46.3229)"><path d="M352.5,462.354l12.5,92.646l-25,0l12.5,-92.646Z" style="fill:#fff;"/></g><g transform="matrix(1.4568,0,0,1,275.738,82.6458)"><path d="M352.5,462.354l12.5,92.646l-25,0l12.5,-92.646Z" style="fill:#fff;"/></g><g transform="matrix(1.4568,0,0,1,293.949,97.7902)"><path d="M352.5,462.354l12.5,92.646l-25,0l12.5,-92.646Z" style="fill:#fff;"/></g><g transform="matrix(1.66667,0,0,1.66667,-348.893,-141.667)"><path d="M585,220l4.051,10.949l10.949,4.051l-10.949,4.051l-4.051,10.949l-4.051,-10.949l-10.949,-4.051l10.949,-4.051l4.051,-10.949Z" style="fill:#fff;"/></g><g transform="matrix(1.66667,0,0,1.66667,-473.893,-76.6667)"><path d="M585,220l4.051,10.949l10.949,4.051l-10.949,4.051l-4.051,10.949l-4.051,-10.949l-10.949,-4.051l10.949,-4.051l4.051,-10.949Z" style="fill:#fff;"/></g><g transform="matrix(1.66667,0,0,1.66667,-163.893,-71.6667)"><path d="M585,220l4.051,10.949l10.949,4.051l-10.949,4.051l-4.051,10.949l-4.051,-10.949l-10.949,-4.051l10.949,-4.051l4.051,-10.949Z" style="fill:#fff;"/></g><g transform="matrix(1.66667,0,0,1.66667,-613.893,-141.667)"><path d="M585,220l4.051,10.949l10.949,4.051l-10.949,4.051l-4.051,10.949l-4.051,-10.949l-10.949,-4.051l10.949,-4.051l4.051,-10.949Z" style="fill:#fff;"/></g><g transform="matrix(1.66667,0,0,1.66667,-785.252,43.3333)"><path d="M585,220l4.051,10.949l10.949,4.051l-10.949,4.051l-4.051,10.949l-4.051,-10.949l-10.949,-4.051l10.949,-4.051l4.051,-10.949Z" style="fill:#fff;"/></g><g transform="matrix(1.66667,0,0,1.66667,31.1071,18.3333)"><path d="M585,220l4.051,10.949l10.949,4.051l-10.949,4.051l-4.051,10.949l-4.051,-10.949l-10.949,-4.051l10.949,-4.051l4.051,-10.949Z" style="fill:#fff;"/></g></g></g></g><path d="M204.33,435.24l-8.562,-32.376l-5.708,0l-0,397.076l-94.286,0l-0,-699.88l91.428,-0l99.897,364.699l8.562,32.375l5.708,0l0,-397.074l94.286,-0l-0,699.88l-91.429,0l-99.896,-364.7Zm10.125,-2.726l-10.614,-40.135l-24.267,-0l-0,397.076c-0,-0 -73.315,-0 -73.315,-0c0,-0 0,-678.91 0,-678.91c0,0 72.944,0 72.944,0c-0,0 97.77,356.939 97.77,356.939c0,0 10.615,40.136 10.615,40.136l24.267,-0l-0,-397.075c-0,0 73.314,0 73.314,0c0,0 0,592.415 0,678.91c0,-0 -72.943,-0 -72.943,-0c-0,-0 -97.771,-356.941 -97.771,-356.941l0,0Z" style="fill:#fff;"/><path d="M708.988,559.94l0,96.191c-0.952,28.571 -6.667,54.286 -17.143,76.19c-8.571,19.048 -21.905,37.143 -40.952,51.429c-19.048,15.238 -44.752,23.81 -78.983,23.81c-34.231,-0 -60.898,-8.572 -79.946,-23.81c-19.047,-14.286 -31.428,-32.381 -40,-51.429c-10.476,-21.904 -16.19,-47.619 -17.143,-76.19l0,-412.262c0.953,-27.619 6.667,-53.333 17.143,-75.238c8.572,-19.048 20.953,-38.095 40,-52.381c19.048,-14.286 45.715,-23.81 79.946,-23.81c34.231,0 59.935,9.524 78.983,23.81c19.047,14.286 32.381,33.333 40.952,52.381c10.476,21.905 16.191,47.619 17.143,75.238l0,96.191l-96.19,-0l-0,-96.191c-0,-19.048 -4.755,-32.381 -15.215,-43.809c-4.754,-4.762 -13.312,-7.62 -23.771,-7.62c-18.067,0 -26.625,13.334 -31.379,25.715c-2.853,7.619 -3.804,16.19 -4.754,25.714l-0,412.262c0.95,20 6.656,33.333 16.164,43.809c4.755,4.762 11.411,7.62 19.969,7.62c21.87,-0 30.427,-11.429 35.182,-25.715c2.852,-6.666 3.804,-15.238 3.804,-25.714l-0,-96.191l96.19,0Zm-10.485,10.486l-0,85.527c-0.917,26.931 -6.238,51.189 -16.117,71.844l-0.053,0.11c-7.939,17.643 -20.2,34.306 -37.731,47.455l-0.132,0.098c-17.574,14.059 -41.206,21.614 -72.56,21.614c-31.386,-0 -55.931,-7.54 -73.395,-21.512l-0.128,-0.102c-17.649,-13.237 -28.978,-29.924 -36.861,-47.441l-0.05,-0.112c-9.931,-20.764 -15.252,-45.02 -16.169,-71.949c-0,-0.005 -0,-402.05 -0,-411.905c0.917,-26.018 6.245,-50.257 16.117,-70.898l0.052,-0.11c7.941,-17.647 19.244,-35.255 36.78,-48.407c17.534,-13.15 42.142,-21.712 73.654,-21.712c31.481,0 55.174,8.575 72.692,21.712c17.548,13.162 29.784,30.747 37.681,48.296l0.05,0.111c9.924,20.75 15.251,44.987 16.169,71.003c0.001,0.005 0.001,85.526 0.001,85.526c-0,-0 -75.22,-0 -75.22,-0c0,-0 0,-85.705 0,-85.705c0,-22.165 -5.793,-37.59 -17.965,-50.889l-0.153,-0.168c-6.442,-6.451 -17.537,-10.857 -31.353,-10.857c-23.342,-0 -35.025,16.445 -41.168,32.441l-0.015,0.041c-3.163,8.448 -4.335,17.882 -5.384,28.39l-0.052,0.52l0,413.033c1.107,23.283 7.935,38.542 18.886,50.608l0.168,0.184c6.717,6.728 15.791,10.873 27.565,10.873c14.075,0 23.759,-4.017 30.796,-9.993c6.813,-5.785 11.203,-13.637 14.205,-22.509c3.182,-7.668 4.47,-17.456 4.47,-29.412l0,-85.705l75.22,0Z" style="fill:#fff;"/><path d="M849.092,435.24l-8.562,-32.376l-5.709,0l0,397.076l-94.285,0l-0,-699.88l91.428,-0l99.897,364.699l8.562,32.375l5.708,0l-0,-397.074l94.286,-0l-0,699.88l-91.429,0l-99.896,-364.7Zm10.125,-2.726l-10.614,-40.135l-24.267,-0l-0,397.076c-0,-0 -73.315,-0 -73.315,-0c0,-0 0,-678.91 0,-678.91c0,0 72.944,0 72.944,0c-0,0 96.523,352.384 97.77,356.939c0,0 10.615,40.136 10.615,40.136l24.267,-0l-0,-397.075c-0,0 73.314,0 73.314,0c0,0 0,678.91 0,678.91c0,-0 -72.943,-0 -72.943,-0c-0,-0 -97.771,-356.941 -97.771,-356.941l0,0Z" style="fill:#fff;"/></g><path d="M61.391,1631.77l-2.697,-10.198l-1.798,-0l0,125.079l-29.7,-0l0,-220.463l28.8,0l31.468,114.881l2.697,10.198l1.798,-0l-0,-125.079l29.7,0l-0,220.463l-28.8,-0l-31.468,-114.881Z" style="fill:#fff;fill-rule:nonzero;"/><path d="M231.759,1526.18l-0,175.171c-0.3,8.998 -2.1,17.097 -5.4,23.996c-2.7,5.999 -6.9,11.698 -12.9,16.197c-6,4.799 -14.1,7.499 -24.882,7.499c-10.781,-0 -19.181,-2.7 -25.181,-7.499c-6,-4.499 -9.9,-10.198 -12.6,-16.197c-3.3,-6.899 -5.1,-14.998 -5.4,-23.996l0,-175.171l32.4,0l0,175.171c0,6.299 1.498,10.498 4.492,13.798c1.498,1.499 3.594,2.399 6.289,2.399c5.691,0 8.386,-3.599 9.584,-8.098c0.898,-2.1 1.198,-4.8 1.198,-8.099l-0,-175.171l32.4,0Z" style="fill:#fff;fill-rule:nonzero;"/><rect x="255.496" y="1526.18" width="32.363" height="220.463" style="fill:#fff;fill-rule:nonzero;"/><path d="M300.496,1559.48l0,-33.294l93.563,0l-0,33.294l-30.588,0l0,187.169l-32.387,-0l0,-187.169l-30.588,0Z" style="fill:#fff;fill-rule:nonzero;"/><path d="M460.359,1585.27c-0,-7.198 -0.3,-15.297 -2.396,-21.596c-2.097,-5.999 -5.392,-10.198 -10.484,-10.198c-8.387,0.3 -11.083,8.998 -11.083,21.896c0,7.499 3.295,15.298 8.088,23.696c4.792,8.399 11.082,17.097 17.375,26.396c7.5,11.098 15,22.496 20.7,33.594c5.7,11.098 9.6,22.496 9.6,34.494c-0,14.698 -2.4,28.495 -9.3,38.694c-6.9,10.198 -18,16.797 -35.68,16.797c-20.683,-0 -32.383,-7.799 -38.983,-19.797c-6.6,-11.998 -8.1,-27.895 -8.1,-44.392l31.8,-3c0,9.299 0.3,18.597 2.697,25.496c2.097,7.199 5.692,11.998 12.583,11.998c9.588,-0 13.183,-10.198 13.183,-24.296c-0,-7.199 -3.595,-15.597 -8.389,-24.296c-2.697,-4.199 -5.393,-8.698 -8.389,-13.198c-6.292,-8.998 -13.185,-19.196 -20.385,-30.295c-7.2,-11.098 -12.6,-22.496 -15.9,-34.194c-1.8,-5.699 -2.7,-11.698 -2.7,-17.697c0,-11.998 2.7,-24.896 9.6,-34.794c6.9,-9.598 17.4,-16.497 32.681,-16.798c19.482,-0.3 30.882,7.799 37.182,19.497c6.3,11.998 8.1,26.696 8.1,38.994l-31.8,2.999Z" style="fill:#fff;fill-rule:nonzero;"/><path d="M598.275,1746.65l-0,-220.463l25.5,0c29.963,0 46.162,5.999 54.862,22.796c8.4,16.797 9.6,44.393 9.6,87.585c0,43.193 -1.2,70.489 -9.6,87.286c-8.7,16.797 -24.899,22.796 -54.862,22.796l-25.5,-0Zm32.4,-32.395c11.082,0 17.372,-1.199 20.667,-11.998c1.497,-5.099 2.695,-12.897 2.995,-23.396c0.3,-10.498 0.338,-24.596 0.338,-42.593c-0,-17.997 -0.038,-32.094 -0.338,-42.592c-0.3,-10.199 -1.498,-17.997 -2.995,-23.396c-3.295,-10.499 -9.585,-11.699 -20.667,-11.699l-0,155.674Z" style="fill:#fff;fill-rule:nonzero;"/><path d="M795.937,1526.18l0,175.171c-0.3,8.998 -2.1,17.097 -5.4,23.996c-2.7,5.999 -6.9,11.698 -12.9,16.197c-6,4.799 -14.1,7.499 -24.881,7.499c-10.781,-0 -19.181,-2.7 -25.181,-7.499c-6,-4.499 -9.9,-10.198 -12.6,-16.197c-3.3,-6.899 -5.1,-14.998 -5.4,-23.996l-0,-175.171l32.4,0l-0,175.171c-0,6.299 1.497,10.498 4.492,13.798c1.497,1.499 3.594,2.399 6.289,2.399c5.69,0 8.385,-3.599 9.583,-8.098c0.899,-2.1 1.198,-4.8 1.198,-8.099l0,-175.171l32.4,0Z" style="fill:#fff;fill-rule:nonzero;"/><path d="M992.615,1671.05l0,30.3c-0.3,9 -2.1,17.1 -5.4,24c-2.7,6 -6.9,11.7 -12.9,16.2c-6,4.8 -14.096,7.5 -24.879,7.5c-10.783,-0 -19.183,-2.7 -25.183,-7.5c-6,-4.5 -9.9,-10.2 -12.6,-16.2c-3.3,-6.9 -5.1,-15 -5.4,-24l-0,-129.863c0.3,-8.7 2.1,-16.8 5.4,-23.7c2.7,-6 6.6,-12 12.6,-16.5c6,-4.5 14.4,-7.5 25.183,-7.5c10.783,0 18.879,3 24.879,7.5c6,4.5 10.2,10.5 12.9,16.5c3.3,6.9 5.1,15 5.4,23.7l0,30.3l-30.3,0l0,-30.3c0,-6 -1.497,-10.2 -4.792,-13.8c-1.498,-1.5 -4.193,-2.4 -7.488,-2.4c-5.691,0 -8.387,4.2 -9.884,8.1c-0.899,2.4 -1.199,5.1 -1.498,8.1l-0,129.863c0.299,6.3 2.097,10.5 5.092,13.8c1.497,1.5 3.594,2.4 6.29,2.4c6.889,-0 9.585,-3.6 11.082,-8.1c0.899,-2.1 1.198,-4.8 1.198,-8.1l0,-30.3l30.3,-0Z" style="fill:#fff;fill-rule:nonzero;"/><path d="M1003.3,1746.65l33.3,-220.463l39.562,0l33.3,220.463l-31.5,-0l-6,-44.993l-31.162,0l-6,44.993l-31.5,-0Zm54.862,-148.775l-0.893,-5.699l-1.775,-0l-0.894,5.699l-9.3,69.588l22.162,0l-9.3,-69.588Z" style="fill:#fff;fill-rule:nonzero;"/><path d="M1210.41,1526.18l0,175.171c-0.3,8.998 -2.1,17.097 -5.4,23.996c-2.7,5.999 -6.9,11.698 -12.9,16.197c-6,4.799 -14.1,7.499 -24.881,7.499c-10.781,-0 -19.181,-2.7 -25.181,-7.499c-6,-4.499 -9.9,-10.198 -12.6,-16.197c-3.3,-6.899 -5.1,-14.998 -5.4,-23.996l-0,-175.171l32.4,0l-0,175.171c-0,6.299 1.497,10.498 4.492,13.798c1.498,1.499 3.594,2.399 6.289,2.399c5.69,0 8.386,-3.599 9.583,-8.098c0.899,-2.1 1.198,-4.8 1.198,-8.099l0,-175.171l32.4,0Z" style="fill:#fff;fill-rule:nonzero;"/><path d="M1287.82,1585.27c0,-7.198 -0.299,-15.297 -2.396,-21.596c-2.096,-5.999 -5.391,-10.198 -10.483,-10.198c-8.387,0.3 -11.083,8.998 -11.083,21.896c-0,7.499 3.295,15.298 8.087,23.696c4.793,8.399 11.083,17.097 17.375,26.396c7.5,11.098 15,22.496 20.7,33.594c5.7,11.098 9.6,22.496 9.6,34.494c0,14.698 -2.4,28.495 -9.3,38.694c-6.9,10.198 -18,16.797 -35.679,16.797c-20.683,-0 -32.383,-7.799 -38.983,-19.797c-6.6,-11.998 -8.1,-27.895 -8.1,-44.392l31.8,-3c-0,9.299 0.3,18.597 2.696,25.496c2.098,7.199 5.693,11.998 12.584,11.998c9.587,-0 13.182,-10.198 13.182,-24.296c0,-7.199 -3.595,-15.597 -8.388,-24.296c-2.697,-4.199 -5.393,-8.698 -8.389,-13.198c-6.292,-8.998 -13.185,-19.196 -20.385,-30.295c-7.2,-11.098 -12.6,-22.496 -15.9,-34.194c-1.8,-5.699 -2.7,-11.698 -2.7,-17.697c-0,-11.998 2.7,-24.896 9.6,-34.794c6.9,-9.598 17.4,-16.497 32.68,-16.798c19.482,-0.3 30.882,7.799 37.182,19.497c6.3,11.998 8.1,26.696 8.1,38.994l-31.8,2.999Z" style="fill:#fff;fill-rule:nonzero;"/><path d="M1390.71,1585.27c0,-7.198 -0.299,-15.297 -2.396,-21.596c-2.096,-5.999 -5.391,-10.198 -10.483,-10.198c-8.387,0.3 -11.083,8.998 -11.083,21.896c-0,7.499 3.295,15.298 8.087,23.696c4.793,8.399 11.083,17.097 17.375,26.396c7.5,11.098 15,22.496 20.7,33.594c5.7,11.098 9.6,22.496 9.6,34.494c0,14.698 -2.4,28.495 -9.3,38.694c-6.9,10.198 -18,16.797 -35.679,16.797c-20.683,-0 -32.383,-7.799 -38.983,-19.797c-6.6,-11.998 -8.1,-27.895 -8.1,-44.392l31.8,-3c-0,9.299 0.3,18.597 2.696,25.496c2.098,7.199 5.693,11.998 12.584,11.998c9.587,-0 13.182,-10.198 13.182,-24.296c0,-7.199 -3.595,-15.597 -8.388,-24.296c-2.697,-4.199 -5.393,-8.698 -8.389,-13.198c-6.292,-8.998 -13.185,-19.196 -20.385,-30.295c-7.2,-11.098 -12.6,-22.496 -15.9,-34.194c-1.8,-5.699 -2.7,-11.698 -2.7,-17.697c-0,-11.998 2.7,-24.896 9.6,-34.794c6.9,-9.598 17.4,-16.497 32.68,-16.798c19.482,-0.3 30.882,7.799 37.182,19.497c6.3,11.998 8.1,26.696 8.1,38.994l-31.8,2.999Z" style="fill:#fff;fill-rule:nonzero;"/><path d="M1439.95,1526.18l74.062,0l0,33.3l-41.678,0l-0,57.863l29.985,-0l-0,35.437l-29.985,0l-0,60.563l41.678,-0l0,33.3l-74.062,-0l-0,-220.463Z" style="fill:#fff;fill-rule:nonzero;"/><path d="M1654.93,1631.77l-2.697,-10.198l-1.798,-0l0,125.079l-29.7,-0l0,-220.463l28.8,0l31.468,114.881l2.697,10.198l1.798,-0l-0,-125.079l29.7,0l-0,220.463l-28.8,-0l-31.468,-114.881Z" style="fill:#fff;fill-rule:nonzero;"/><path d="M1823.49,1701.36c-0.3,8.998 -2.1,17.097 -5.4,23.996c-2.7,5.999 -6.9,11.698 -12.9,16.197c-6,4.799 -14.1,7.499 -24.882,7.499c-10.781,-0 -19.181,-2.7 -25.181,-7.499c-6,-4.499 -9.9,-10.198 -12.6,-16.197c-3.3,-6.899 -5.1,-14.998 -5.4,-23.996l0,-129.878c0.3,-8.699 2.1,-16.797 5.4,-23.696c2.7,-5.999 6.6,-11.998 12.6,-16.498c6,-4.499 14.4,-7.499 25.181,-7.499c10.782,0 18.882,3 24.882,7.499c6,4.5 10.2,10.499 12.9,16.498c3.3,6.899 5.1,14.997 5.4,23.696l-0,129.878Zm-32.4,-129.878c-0,-5.999 -1.198,-10.199 -4.193,-13.798c-1.497,-1.5 -3.893,-2.4 -6.589,-2.4c-5.69,0 -8.385,4.2 -9.583,8.099c-0.898,2.4 -1.198,5.099 -1.198,8.099l0,129.878c0,6.299 1.498,10.498 4.492,13.798c1.498,1.499 3.594,2.399 6.289,2.399c5.691,0 8.386,-3.599 9.584,-8.098c0.898,-2.1 1.198,-4.8 1.198,-8.099l-0,-129.878Z" style="fill:#fff;fill-rule:nonzero;"/><rect x="1845.43" y="1526.18" width="32.362" height="220.463" style="fill:#fff;fill-rule:nonzero;"/><path d="M1959.69,1746.65l-16.8,-92.984l-8.663,-0l0,92.984l-32.4,-0l0,-220.463l32.4,0c38.663,0 55.163,21.896 55.163,63.589c-0,21.897 -5.7,41.693 -18,50.092l20.7,106.782l-32.4,-0Zm-25.463,-122.979c4.493,-0 10.484,-0.6 15.276,-4.8c4.793,-4.199 8.687,-12.298 8.687,-27.895c-0,-15.597 -3.894,-23.996 -8.687,-28.195c-4.792,-4.2 -10.783,-4.499 -15.276,-4.499l0,65.389Z" style="fill:#fff;fill-rule:nonzero;"/></g></g></svg>