<?xml version="1.0" encoding="utf-8"?>
<!-- Generator: Adobe Illustrator 16.0.0, SVG Export Plug-In . SVG Version: 6.00 Build 0)  -->
<!DOCTYPE svg PUBLIC "-//W3C//DTD SVG 1.1//EN" "http://www.w3.org/Graphics/SVG/1.1/DTD/svg11.dtd">
<svg version="1.1" xmlns="http://www.w3.org/2000/svg" xmlns:xlink="http://www.w3.org/1999/xlink" x="0px" y="0px"
	 width="848.316px" height="411.291px" viewBox="0 0 848.316 411.291" enable-background="new 0 0 848.316 411.291"
	 xml:space="preserve">
<g id="Calque_1">
	<g>
		<rect x="12.902" y="5.645" fill="none" width="282.259" height="156.452"/>
		<path fill="#FFFFFF" stroke="#000000" stroke-width="3" stroke-miterlimit="10" d="M20.902,5.644h21.6c9.4,0,18.8,2.4,26,9.2
			s12,18,12,34.799s-4.8,27.8-12,34.6s-16.6,9.6-26,9.6v58.799h-21.6V5.644z M42.502,71.843c6.6,0,10.8-1.2,13.2-4.6
			c2.4-3.2,3-8.6,3-16.799c0-8.2-0.6-14-3-17.6c-2.4-3.6-6.6-5.2-13.2-5.2V71.843z"/>
		<path fill="#FFFFFF" stroke="#000000" stroke-width="3" stroke-miterlimit="10" d="M85.3,152.642L107.5,5.644h26.399l22.2,146.998
			h-21l-4-30h-20.8l-4,30H85.3z M121.9,53.443l-0.6-3.8h-1.2l-0.6,3.8l-6.2,46.399h14.8L121.9,53.443z"/>
		<path fill="#FFFFFF" stroke="#000000" stroke-width="3" stroke-miterlimit="10" d="M199.899,45.043c0-4.8-0.2-10.2-1.6-14.4
			c-1.4-4-3.6-6.8-7-6.8c-5.6,0.2-7.399,6-7.399,14.6c0,5,2.2,10.2,5.4,15.8c3.2,5.6,7.4,11.4,11.6,17.6c5,7.4,10,15,13.8,22.4
			s6.4,15,6.4,23c0,9.8-1.6,19-6.2,25.8c-4.6,6.8-12,11.2-23.8,11.2c-13.8,0-21.6-5.2-26-13.2c-4.4-8-5.4-18.6-5.4-29.6l21.2-2
			c0,6.2,0.2,12.4,1.8,17c1.4,4.8,3.8,8,8.4,8c6.4,0,8.8-6.8,8.8-16.2c0-4.8-2.4-10.4-5.6-16.2c-1.8-2.8-3.6-5.8-5.6-8.8
			c-4.2-6-8.8-12.8-13.6-20.2c-4.8-7.4-8.4-15-10.6-22.8c-1.2-3.8-1.8-7.8-1.8-11.8c0-8,1.8-16.6,6.4-23.2
			c4.6-6.4,11.6-11,21.799-11.2c13-0.2,20.6,5.2,24.8,13c4.2,8,5.4,17.8,5.4,26L199.899,45.043z"/>
		<path fill="#FFFFFF" stroke="#000000" stroke-width="3" stroke-miterlimit="10" d="M268.497,45.043c0-4.8-0.2-10.2-1.6-14.4
			c-1.4-4-3.6-6.8-7-6.8c-5.6,0.2-7.399,6-7.399,14.6c0,5,2.2,10.2,5.4,15.8c3.2,5.6,7.4,11.4,11.6,17.6c5,7.4,10,15,13.8,22.4
			s6.4,15,6.4,23c0,9.8-1.6,19-6.2,25.8c-4.6,6.8-12,11.2-23.8,11.2c-13.8,0-21.6-5.2-26-13.2c-4.4-8-5.4-18.6-5.4-29.6l21.2-2
			c0,6.2,0.2,12.4,1.8,17c1.4,4.8,3.8,8,8.4,8c6.4,0,8.8-6.8,8.8-16.2c0-4.8-2.4-10.4-5.6-16.2c-1.8-2.8-3.6-5.8-5.6-8.8
			c-4.2-6-8.8-12.8-13.6-20.2c-4.8-7.4-8.4-15-10.6-22.8c-1.2-3.8-1.8-7.8-1.8-11.8c0-8,1.8-16.6,6.4-23.2
			c4.6-6.4,11.6-11,21.799-11.2c13-0.2,20.6,5.2,24.8,13c4.2,8,5.4,17.8,5.4,26L268.497,45.043z"/>
	</g>
</g>
<g id="Calque_2">
	<g display="none">
		<rect x="68.273" y="186" display="inline" fill="none" width="779.306" height="222.065"/>
		<path display="inline" fill="none" stroke="#D1D3D4" stroke-width="3" stroke-miterlimit="10" d="M156.733,185.993h74.101v33.3
			h-41.701v57.901h30v35.4h-30v60.601h41.701v33.3h-74.101V185.993z"/>
		<path display="inline" fill="none" stroke="#D1D3D4" stroke-width="3" stroke-miterlimit="10" d="M283.032,291.594l-2.7-10.2h-1.8
			v125.101h-29.7V185.993h28.8l31.5,114.901l2.7,10.2h1.8V185.993h29.7v220.502h-28.8L283.032,291.594z"/>
		<path display="inline" fill="none" stroke="#D1D3D4" stroke-width="3" stroke-miterlimit="10" d="M444.429,219.293h-44.701v57.901
			h30v33.301h-30v96h-32.4V185.993h77.101V219.293z"/>
		<path display="inline" fill="none" stroke="#D1D3D4" stroke-width="3" stroke-miterlimit="10" d="M448.626,406.495l33.3-220.502
			h39.602l33.3,220.502h-31.501l-6-45h-31.199l-6,45H448.626z M503.526,257.693l-0.899-5.7h-1.801l-0.899,5.7l-9.3,69.601h22.199
			L503.526,257.693z"/>
		<path display="inline" fill="none" stroke="#D1D3D4" stroke-width="3" stroke-miterlimit="10" d="M604.024,291.594l-2.7-10.2
			h-1.801v125.101h-29.699V185.993h28.8l31.5,114.901l2.7,10.2h1.8V185.993h29.701v220.502h-28.801L604.024,291.594z"/>
		<path display="inline" fill="none" stroke="#D1D3D4" stroke-width="3" stroke-miterlimit="10" d="M676.92,219.293v-33.3h93.602
			v33.3h-30.601v187.202h-32.4V219.293H676.92z"/>
	</g>
	<g display="none">
		<rect x="60.491" y="176" display="inline" fill="none" width="779.307" height="221.905"/>
		<path display="inline" fill="#FFFFFF" stroke="#939598" stroke-width="3" stroke-miterlimit="10" d="M148.952,175.993h74.101v33.3
			h-41.701v57.901h30v35.4h-30v60.601h41.701v33.3h-74.101V175.993z"/>
		<path display="inline" fill="#FFFFFF" stroke="#939598" stroke-width="3" stroke-miterlimit="10" d="M275.25,281.594l-2.7-10.2
			h-1.8v125.101h-29.7V175.993h28.8l31.5,114.901l2.7,10.2h1.8V175.993h29.7v220.502h-28.8L275.25,281.594z"/>
		<path display="inline" fill="#FFFFFF" stroke="#939598" stroke-width="3" stroke-miterlimit="10" d="M436.647,209.293h-44.701
			v57.901h30v33.301h-30v96h-32.4V175.993h77.101V209.293z"/>
		<path display="inline" fill="#FFFFFF" stroke="#939598" stroke-width="3" stroke-miterlimit="10" d="M440.844,396.495
			l33.3-220.502h39.601l33.3,220.502h-31.5l-6-45h-31.2l-6,45H440.844z M495.744,247.693l-0.899-5.7h-1.8l-0.9,5.7l-9.3,69.601h22.2
			L495.744,247.693z"/>
		<path display="inline" fill="#FFFFFF" stroke="#939598" stroke-width="3" stroke-miterlimit="10" d="M596.242,281.594l-2.699-10.2
			h-1.801v125.101h-29.7V175.993h28.8l31.501,114.901l2.7,10.2h1.8V175.993h29.7v220.502h-28.8L596.242,281.594z"/>
		<path display="inline" fill="#FFFFFF" stroke="#939598" stroke-width="3" stroke-miterlimit="10" d="M669.139,209.293v-33.3
			h93.602v33.3H732.14v187.202h-32.4V209.293H669.139z"/>
	</g>
	<g>
		<rect x="52.709" y="166" fill="none" width="779.306" height="221.905"/>
		<path d="M98.417,308.969c14.648,1.172,27.635,0.1,38.965-3.223c11.325-3.123,20.897-7.518,28.711-13.184
			c9.567-6.835,16.699-14.549,21.387-23.145c4.688-8.592,6.834-16.209,6.445-22.852c-0.197-3.708-1.076-6.834-2.637-9.375
			c-1.565-2.733-3.909-4.688-7.031-5.859c-5.667-1.95-12.598,1.172-20.801,9.375s-15.628,18.654-22.266,31.348
			c-2.93,5.47-5.566,11.133-7.91,16.993c-2.541,5.859-4.591,11.622-6.152,17.285c-3.126,10.939-4.495,21.193-4.102,30.762
			c0.389,9.571,3.319,17.092,8.789,22.559c4.294,4.299,9.178,7.324,14.648,9.082c5.466,1.564,11.032,2.051,16.699,1.465
			c10.547-0.975,20.7-4.688,30.469-11.133c9.764-6.445,16.892-13.477,21.387-21.094c0.586-5.663,2.44-7.225,5.566-4.688
			c1.95,1.368,3.026,3.223,3.223,5.566c0,1.564-0.49,3.322-1.465,5.273c-4.884,8.203-12.891,16.113-24.023,23.73
			c-11.133,7.814-22.852,12.305-35.156,13.477c-1.758,0.197-3.516,0.293-5.273,0.293c-4.884,0-9.769-0.779-14.648-2.344
			c-6.445-1.758-12.405-5.369-17.871-10.84c-4.298-4.102-7.617-8.982-9.961-14.648c-2.151-5.663-3.516-11.719-4.102-18.164
			c-0.783-9.179-0.101-18.847,2.051-29.004c2.147-10.351,5.273-20.312,9.375-29.883c5.077-11.522,11.229-22.069,18.457-31.641
			c7.42-9.375,15.134-16.306,23.145-20.801c4.294-2.536,8.592-4.102,12.891-4.688c1.364-0.192,2.733-0.293,4.102-0.293
			c2.93,0,5.859,0.586,8.789,1.758c4.688,1.565,8.299,4.102,10.84,7.617c2.733,3.516,4.395,7.521,4.98,12.012
			c1.561,8.4-0.101,17.972-4.98,28.711c-4.884,10.744-12.794,20.508-23.73,29.297c-9.183,7.228-20.315,13.283-33.398,18.164
			c-13.284,4.688-28.519,6.935-45.703,6.738c-3.516,0.979-6.056-1.172-7.617-6.445c-0.586-2.147-0.879-4.002-0.879-5.566
			c0-2.147,0.586-3.709,1.758-4.688c0.778-0.39,1.758-0.486,2.93-0.293C95.487,306.822,96.851,307.604,98.417,308.969z"/>
		<path d="M244.315,245.395c0.778-4.688,2.344-7.81,4.688-9.375c2.147-1.561,4.688-0.975,7.617,1.758
			c0.975,1.172,1.172,2.737,0.586,4.688c-0.586,1.758-1.076,3.712-1.465,5.859c0.975-2.344,3.415-6.052,7.324-11.133
			c3.905-5.077,9.082-9.375,15.527-12.891c3.319-1.758,7.031-3.122,11.133-4.102c2.147-0.389,4.395-0.586,6.738-0.586
			c1.95,0,4.102,0.101,6.445,0.293c7.224,1.369,12.79,4.495,16.699,9.375c3.905,4.884,6.638,11.037,8.203,18.457
			c1.172,6.056,1.758,12.698,1.758,19.922c0,0.197,0,0.394,0,0.586c0,7.031-0.293,14.456-0.879,22.266
			c-1.172,14.648-2.737,29.493-4.688,44.531c-1.758,15.041-2.051,28.029-0.879,38.965c2.344,0.393,4.001,1.758,4.98,4.102
			c0.975,2.541,1.172,4.783,0.586,6.738c-1.369,3.707-3.323,5.465-5.859,5.273c-1.369,0-2.93-0.586-4.688-1.758
			c-4.884-3.713-7.425-7.127-7.617-10.254c-1.172-24.609-0.49-47.461,2.051-68.555c2.536-21.094,3.516-38.183,2.93-51.27
			c-0.197-7.031-1.272-12.694-3.223-16.992c-2.151-4.294-5.566-6.834-10.254-7.617c-6.253-1.172-12.208-0.293-17.871,2.637
			c-5.47,2.93-10.547,7.425-15.234,13.477c-8.597,11.133-15.335,26.857-20.215,47.168c-5.081,20.118-7.814,42.188-8.203,66.211
			c0.975,6.252-0.49,8.693-4.395,7.324c-3.909-1.561-6.349-7.42-7.324-17.578c0.192-4.688,0.485-9.961,0.879-15.82
			c0.389-5.859,0.879-12.012,1.465-18.457c1.172-12.108,2.829-24.706,4.98-37.793C238.062,267.761,240.799,255.941,244.315,245.395z
			"/>
		<path d="M445.584,259.457c3.122-0.586,4.88,0.979,5.273,4.688c0.192,0.394,0.293,0.687,0.293,0.879
			c0,3.126-2.344,4.884-7.031,5.273c-12.501,0.979-25.392,1.465-38.672,1.465c-4.102,0-8.203,0-12.305,0
			c-17.578-0.389-33.499-3.809-47.754-10.254c-2.541-2.344-3.909-6.052-4.102-11.133c0-0.389,0-0.682,0-0.879
			c0-2.93,0.879-4.395,2.637-4.395c0.778,0,1.758,0.293,2.93,0.879c4.491,2.737,12.305,5.566,23.438,8.496
			c11.133,2.737,23.044,4.788,35.742,6.152c6.834,0.586,13.669,0.783,20.508,0.586C433.376,261.215,439.725,260.629,445.584,259.457
			z M371.463,369.907c0,1.955-0.293,3.713-0.879,5.273c-0.586,1.564-1.272,2.736-2.051,3.516c-1.955,2.15-4.202,3.223-6.738,3.223
			c-1.172,0-2.444-0.293-3.809-0.879c-4.298-1.365-6.445-4.688-6.445-9.961c0-0.389,0-0.682,0-0.879
			c0-1.951,0.096-4.102,0.293-6.445c0-2.732,0.975-6.053,2.93-9.961c0.975,2.736,1.561,5.178,1.758,7.324
			c0,2.15,0.586,2.541,1.758,1.172c1.364-1.561,2.536-7.324,3.516-17.285c0.778-10.154,2.051-22.459,3.809-36.914
			c0.975-7.617,2.147-15.82,3.516-24.609c1.172-8.593,2.733-17.286,4.688-26.075c2.93-13.28,6.638-26.367,11.133-39.258
			c4.491-12.891,10.153-24.316,16.992-34.277c6.638-9.567,14.452-17.185,23.438-22.852c8.981-5.663,19.528-8.496,31.641-8.496h0.293
			c2.344,0,4.395,0.394,6.152,1.172c1.758,0.783,3.223,1.662,4.395,2.637c2.147,2.151,3.223,4.495,3.223,7.031
			c0,0.394-0.101,0.879-0.293,1.465c-0.586,3.126-2.541,4.495-5.859,4.102c-10.744-0.778-20.215,1.076-28.418,5.566
			c-8.203,4.495-15.431,10.84-21.68,19.043c-6.445,8.597-11.916,18.654-16.406,30.176c-4.298,11.719-7.91,23.831-10.84,36.328
			c-1.955,8.203-3.616,16.407-4.98,24.61c-1.369,8.203-2.637,16.113-3.809,23.73c-1.758,14.455-3.126,27.246-4.102,38.379
			C373.707,357.895,372.635,365.612,371.463,369.907z"/>
		<path d="M510.623,234.848c-7.424,0.586-15.041,6.253-22.852,16.992c-8.01,10.94-14.845,23.538-20.507,37.793
			c-2.541,6.056-4.688,12.208-6.445,18.457c-1.955,6.056-3.419,12.012-4.395,17.871c-2.151,10.743-2.637,20.021-1.465,27.832
			c1.172,8.01,4.688,12.697,10.547,14.062c10.35,2.541,19.628-1.365,27.832-11.719c8.203-10.154,14.842-22.362,19.922-36.621
			c3.319-9.568,5.956-19.236,7.91-29.004c1.951-9.568,2.93-17.968,2.93-25.196c1.172-4.491,4.002-4.587,8.496-0.293
			c4.688,4.102,7.225,8.4,7.617,12.891c-0.393,4.494-0.686,9.768-0.879,15.82c0,6.056,0,12.404,0,19.043
			c0.193,11.915,1.072,23.341,2.637,34.277c1.758,10.744,4.688,17.285,8.789,19.629s7.811,2.93,11.133,1.758
			c3.123-1.365,5.663-3.318,7.617-5.859c3.319-1.758,4.98-0.975,4.98,2.344c0,0.197,0,0.393,0,0.586
			c-0.196,3.908-1.465,6.936-3.809,9.082c-3.322,3.127-7.324,4.885-12.012,5.273c-4.494,0.197-9.082-1.465-13.77-4.98
			c-1.954-1.561-3.712-3.904-5.273-7.031c-1.564-3.123-2.93-6.738-4.102-10.84c-2.15-7.421-3.809-15.428-4.98-24.023
			c-0.979-8.593-1.564-15.234-1.758-19.922c-0.196,1.758-0.782,4.005-1.758,6.738c-0.782,2.93-1.954,6.252-3.516,9.961
			c-2.736,6.838-6.545,14.162-11.426,21.973c-4.688,8.01-10.354,14.648-16.992,19.922c-4.298,3.516-8.985,6.152-14.062,7.91
			c-3.126,0.979-6.252,1.465-9.375,1.465c-2.151,0-4.298-0.193-6.445-0.586c-11.916-2.344-19.043-10.447-21.387-24.316
			c-0.783-5.077-1.172-10.351-1.172-15.82c0-9.568,1.268-19.822,3.809-30.762c1.758-7.225,4.001-14.549,6.738-21.973
			c2.536-7.225,5.466-14.159,8.789-20.801c6.249-12.305,13.376-22.751,21.386-31.348c8.203-8.396,16.307-12.694,24.316-12.891
			c0.39,0,0.779,0,1.172,0c11.133,0,19.336,4.005,24.609,12.012c5.467,8.4,9.179,16.017,11.133,22.852
			c-0.586,5.667-2.051,8.203-4.395,7.617c-2.54-0.586-3.223-3.319-2.051-8.203c-2.344-7.224-5.763-12.79-10.254-16.699
			C523.221,236.216,517.458,234.458,510.623,234.848z"/>
		<path d="M594.12,245.395c0.778-4.688,2.344-7.81,4.688-9.375c2.146-1.561,4.688-0.975,7.617,1.758
			c0.975,1.172,1.172,2.737,0.586,4.688c-0.586,1.758-1.076,3.712-1.465,5.859c0.975-2.344,3.415-6.052,7.324-11.133
			c3.904-5.077,9.082-9.375,15.527-12.891c3.318-1.758,7.031-3.122,11.133-4.102c2.146-0.389,4.395-0.586,6.738-0.586
			c1.95,0,4.102,0.101,6.445,0.293c7.224,1.369,12.79,4.495,16.699,9.375c3.904,4.884,6.638,11.037,8.203,18.457
			c1.172,6.056,1.758,12.698,1.758,19.922c0,0.197,0,0.394,0,0.586c0,7.031-0.293,14.456-0.879,22.266
			c-1.172,14.648-2.737,29.493-4.688,44.531c-1.758,15.041-2.051,28.029-0.879,38.965c2.344,0.393,4.001,1.758,4.98,4.102
			c0.975,2.541,1.172,4.783,0.586,6.738c-1.369,3.707-3.323,5.465-5.859,5.273c-1.369,0-2.93-0.586-4.688-1.758
			c-4.885-3.713-7.425-7.127-7.617-10.254c-1.172-24.609-0.49-47.461,2.051-68.555c2.536-21.094,3.516-38.183,2.93-51.27
			c-0.197-7.031-1.272-12.694-3.223-16.992c-2.151-4.294-5.566-6.834-10.254-7.617c-6.253-1.172-12.209-0.293-17.871,2.637
			c-5.471,2.93-10.547,7.425-15.234,13.477c-8.597,11.133-15.335,26.857-20.215,47.168c-5.081,20.118-7.813,42.188-8.203,66.211
			c0.975,6.252-0.489,8.693-4.395,7.324c-3.909-1.561-6.349-7.42-7.324-17.578c0.192-4.688,0.485-9.961,0.879-15.82
			c0.39-5.859,0.879-12.012,1.465-18.457c1.172-12.108,2.829-24.706,4.98-37.793C587.867,267.761,590.604,255.941,594.12,245.395z"
			/>
		<path d="M783.964,239.242c2.146-2.344,3.809-2.051,4.98,0.879c0.389,0.979,0.586,1.955,0.586,2.93c0,1.565-0.586,3.03-1.758,4.395
			c-0.586,0.586-1.465,1.172-2.637,1.758c-0.783,0.394-1.858,0.586-3.223,0.586c-0.197,0-0.394,0-0.586,0
			c-16.604-0.778-33.691-1.465-51.27-2.051s-33.499-4.491-47.754-11.719c-2.344-2.536-3.516-5.566-3.516-9.082
			c0-0.192,0-0.389,0-0.586c0.192-2.733,1.268-4.102,3.223-4.102c0.586,0,1.364,0.197,2.344,0.586
			c2.732,1.172,6.345,2.541,10.84,4.102c4.688,1.758,9.961,3.516,15.82,5.273c10.739,3.126,22.751,5.763,36.035,7.91
			C760.329,242.076,772.634,241.783,783.964,239.242z M737.089,166.879c2.146-2.147,4.294-3.223,6.445-3.223
			c0.778,0,1.657,0.101,2.637,0.293c2.93,1.172,4.49,4.202,4.688,9.082c-2.344,5.859-4.299,13.284-5.859,22.266
			c-1.565,8.986-2.93,19.043-4.102,30.176c-2.151,20.315-3.909,42.581-5.273,66.797c-1.369,24.22-3.223,46.389-5.566,66.504
			c1.561-0.193,2.732-1.072,3.516-2.637c0.778-1.562,1.465-2.93,2.051-4.102c-1.369,6.643-2.541,12.99-3.516,19.043
			c-0.783,6.057-1.662,10.354-2.637,12.891c-1.172,1.561-2.737,2.439-4.688,2.637c-0.979,0-2.051-0.197-3.223-0.586
			c-3.323-1.172-5.081-4.006-5.273-8.496c0-0.193,0-0.389,0-0.586c1.95-13.084,3.611-26.66,4.98-40.723
			c1.172-14.062,2.243-28.025,3.223-41.895c1.561-25.782,3.122-50.098,4.688-72.95C730.739,198.52,733.376,180.355,737.089,166.879z
			"/>
	</g>
	<g>
	</g>
	<g>
	</g>
	<g>
	</g>
	<g>
	</g>
	<g>
	</g>
	<g>
	</g>
</g>
</svg>
