<?xml version="1.0" encoding="utf-8"?>
<!-- Generator: Adobe Illustrator 16.0.0, SVG Export Plug-In . SVG Version: 6.00 Build 0)  -->
<!DOCTYPE svg PUBLIC "-//W3C//DTD SVG 1.1//EN" "http://www.w3.org/Graphics/SVG/1.1/DTD/svg11.dtd">
<svg version="1.1" xmlns="http://www.w3.org/2000/svg" xmlns:xlink="http://www.w3.org/1999/xlink" x="0px" y="0px"
	 width="848.316px" height="411.291px" viewBox="0 0 848.316 411.291" enable-background="new 0 0 848.316 411.291"
	 xml:space="preserve">
<g id="Calque_1">
	<g>
		<rect x="12.902" y="5.645" fill="none" width="282.259" height="156.452"/>
		<path fill="#FFFFFF" stroke="#000000" stroke-width="3" stroke-miterlimit="10" d="M20.902,5.644h21.6c9.4,0,18.8,2.4,26,9.2
			s12,18,12,34.799s-4.8,27.8-12,34.6s-16.6,9.6-26,9.6v58.799h-21.6V5.644z M42.502,71.843c6.6,0,10.8-1.2,13.2-4.6
			c2.4-3.2,3-8.6,3-16.799c0-8.2-0.6-14-3-17.6c-2.4-3.6-6.6-5.2-13.2-5.2V71.843z"/>
		<path fill="#FFFFFF" stroke="#000000" stroke-width="3" stroke-miterlimit="10" d="M85.3,152.642L107.5,5.644h26.399l22.2,146.998
			h-21l-4-30h-20.8l-4,30H85.3z M121.9,53.443l-0.6-3.8h-1.2l-0.6,3.8l-6.2,46.399h14.8L121.9,53.443z"/>
		<path fill="#FFFFFF" stroke="#000000" stroke-width="3" stroke-miterlimit="10" d="M199.899,45.043c0-4.8-0.2-10.2-1.6-14.4
			c-1.4-4-3.6-6.8-7-6.8c-5.6,0.2-7.399,6-7.399,14.6c0,5,2.2,10.2,5.4,15.8c3.2,5.6,7.4,11.4,11.6,17.6c5,7.4,10,15,13.8,22.4
			s6.4,15,6.4,23c0,9.8-1.6,19-6.2,25.8c-4.6,6.8-12,11.2-23.8,11.2c-13.8,0-21.6-5.2-26-13.2c-4.4-8-5.4-18.6-5.4-29.6l21.2-2
			c0,6.2,0.2,12.4,1.8,17c1.4,4.8,3.8,8,8.4,8c6.4,0,8.8-6.8,8.8-16.2c0-4.8-2.4-10.4-5.6-16.2c-1.8-2.8-3.6-5.8-5.6-8.8
			c-4.2-6-8.8-12.8-13.6-20.2c-4.8-7.4-8.4-15-10.6-22.8c-1.2-3.8-1.8-7.8-1.8-11.8c0-8,1.8-16.6,6.4-23.2
			c4.6-6.4,11.6-11,21.799-11.2c13-0.2,20.6,5.2,24.8,13c4.2,8,5.4,17.8,5.4,26L199.899,45.043z"/>
		<path fill="#FFFFFF" stroke="#000000" stroke-width="3" stroke-miterlimit="10" d="M268.497,45.043c0-4.8-0.2-10.2-1.6-14.4
			c-1.4-4-3.6-6.8-7-6.8c-5.6,0.2-7.399,6-7.399,14.6c0,5,2.2,10.2,5.4,15.8c3.2,5.6,7.4,11.4,11.6,17.6c5,7.4,10,15,13.8,22.4
			s6.4,15,6.4,23c0,9.8-1.6,19-6.2,25.8c-4.6,6.8-12,11.2-23.8,11.2c-13.8,0-21.6-5.2-26-13.2c-4.4-8-5.4-18.6-5.4-29.6l21.2-2
			c0,6.2,0.2,12.4,1.8,17c1.4,4.8,3.8,8,8.4,8c6.4,0,8.8-6.8,8.8-16.2c0-4.8-2.4-10.4-5.6-16.2c-1.8-2.8-3.6-5.8-5.6-8.8
			c-4.2-6-8.8-12.8-13.6-20.2c-4.8-7.4-8.4-15-10.6-22.8c-1.2-3.8-1.8-7.8-1.8-11.8c0-8,1.8-16.6,6.4-23.2
			c4.6-6.4,11.6-11,21.799-11.2c13-0.2,20.6,5.2,24.8,13c4.2,8,5.4,17.8,5.4,26L268.497,45.043z"/>
	</g>
</g>
<g id="Calque_2">
	<g>
		<rect x="68.273" y="186" fill="none" width="779.306" height="222.065"/>
		<path fill="none" stroke="#D1D3D4" stroke-width="3" stroke-miterlimit="10" d="M156.431,406.495l33.3-220.502h39.601
			l33.3,220.502h-31.5l-6-45h-31.2l-6,45H156.431z M211.332,257.693l-0.9-5.7h-1.8l-0.9,5.7l-9.3,69.601h22.2L211.332,257.693z"/>
		<path fill="none" stroke="#D1D3D4" stroke-width="3" stroke-miterlimit="10" d="M277.629,406.495V185.993h25.5
			c30,0,46.2,6,54.9,22.8c8.4,16.8,9.6,44.4,9.6,87.601c0,43.2-1.2,70.501-9.6,87.302c-8.7,16.799-24.9,22.799-54.9,22.799H277.629z
			 M310.029,374.094c11.1,0,17.4-1.199,20.7-12c1.5-5.1,2.7-12.9,3-23.4c0.3-10.5,0.3-24.6,0.3-42.6s0-32.101-0.3-42.601
			c-0.3-10.2-1.5-18-3-23.4c-3.3-10.5-9.6-11.7-20.7-11.7V374.094z"/>
		<path fill="none" stroke="#D1D3D4" stroke-width="3" stroke-miterlimit="10" d="M475.328,185.993v175.202
			c-0.3,9-2.1,17.101-5.4,24.001c-2.7,6-6.9,11.699-12.9,16.199c-6,4.801-14.1,7.5-24.9,7.5c-10.8,0-19.2-2.699-25.2-7.5
			c-6-4.5-9.9-10.199-12.6-16.199c-3.3-6.9-5.1-15.001-5.4-24.001V185.993h32.4v175.202c0,6.3,1.5,10.5,4.5,13.8
			c1.5,1.5,3.6,2.4,6.3,2.4c5.7,0,8.4-3.6,9.6-8.1c0.9-2.101,1.2-4.801,1.2-8.101V185.993H475.328z"/>
		<path fill="none" stroke="#D1D3D4" stroke-width="3" stroke-miterlimit="10" d="M499.026,185.993h32.4v190.502h42.9v30h-75.301
			V185.993z"/>
		<path fill="none" stroke="#D1D3D4" stroke-width="3" stroke-miterlimit="10" d="M576.126,219.293v-33.3h93.601v33.3h-30.6v187.202
			h-32.4V219.293H576.126z"/>
		<path fill="none" stroke="#D1D3D4" stroke-width="3" stroke-miterlimit="10" d="M682.324,185.993h74.101v33.3h-41.7v57.901h30
			v35.4h-30v60.601h41.7v33.3h-74.101V185.993z"/>
	</g>
	<g>
		<rect x="60.491" y="176" fill="none" width="779.307" height="221.905"/>
		<path fill="#FFFFFF" stroke="#939598" stroke-width="3" stroke-miterlimit="10" d="M148.649,396.495l33.3-220.502h39.601
			l33.3,220.502h-31.5l-6-45h-31.2l-6,45H148.649z M203.55,247.693l-0.9-5.7h-1.8l-0.9,5.7l-9.3,69.601h22.2L203.55,247.693z"/>
		<path fill="#FFFFFF" stroke="#939598" stroke-width="3" stroke-miterlimit="10" d="M269.847,396.495V175.993h25.5
			c30,0,46.2,6,54.9,22.8c8.4,16.8,9.6,44.4,9.6,87.601c0,43.2-1.2,70.501-9.6,87.302c-8.7,16.799-24.9,22.799-54.9,22.799H269.847z
			 M302.248,364.094c11.1,0,17.4-1.199,20.7-12c1.5-5.1,2.7-12.9,3-23.4c0.3-10.5,0.3-24.6,0.3-42.6c0-18,0-32.101-0.3-42.601
			c-0.3-10.2-1.5-18-3-23.4c-3.3-10.5-9.6-11.7-20.7-11.7V364.094z"/>
		<path fill="#FFFFFF" stroke="#939598" stroke-width="3" stroke-miterlimit="10" d="M467.546,175.993v175.202
			c-0.3,9-2.1,17.101-5.4,24.001c-2.7,6-6.9,11.699-12.9,16.199c-6,4.801-14.1,7.5-24.9,7.5c-10.8,0-19.2-2.699-25.2-7.5
			c-6-4.5-9.9-10.199-12.6-16.199c-3.3-6.9-5.1-15.001-5.4-24.001V175.993h32.4v175.202c0,6.3,1.5,10.5,4.5,13.8
			c1.5,1.5,3.6,2.4,6.3,2.4c5.7,0,8.4-3.6,9.6-8.1c0.9-2.101,1.2-4.801,1.2-8.101V175.993H467.546z"/>
		<path fill="#FFFFFF" stroke="#939598" stroke-width="3" stroke-miterlimit="10" d="M491.244,175.993h32.4v190.502h42.9v30h-75.301
			V175.993z"/>
		<path fill="#FFFFFF" stroke="#939598" stroke-width="3" stroke-miterlimit="10" d="M568.344,209.293v-33.3h93.602v33.3h-30.601
			v187.202h-32.4V209.293H568.344z"/>
		<path fill="#FFFFFF" stroke="#939598" stroke-width="3" stroke-miterlimit="10" d="M674.542,175.993h74.101v33.3h-41.7v57.901h30
			v35.4h-30v60.601h41.7v33.3h-74.101V175.993z"/>
	</g>
	<g>
		<rect x="52.709" y="166" fill="none" width="779.306" height="221.905"/>
		<path d="M140.867,386.495l33.3-220.502h39.601l33.3,220.502h-31.5l-6-45h-31.2l-6,45H140.867z M195.767,237.693l-0.9-5.7h-1.8
			l-0.9,5.7l-9.3,69.601h22.2L195.767,237.693z"/>
		<path d="M262.064,386.495V165.993h25.5c30,0,46.2,6,54.9,22.8c8.4,16.8,9.6,44.4,9.6,87.601c0,43.2-1.2,70.501-9.6,87.302
			c-8.7,16.799-24.9,22.799-54.9,22.799H262.064z M294.465,354.094c11.1,0,17.4-1.199,20.7-12c1.5-5.1,2.7-12.9,3-23.4
			c0.3-10.5,0.3-24.6,0.3-42.6c0-18,0-32.101-0.3-42.601c-0.3-10.2-1.5-18-3-23.4c-3.3-10.5-9.6-11.7-20.7-11.7V354.094z"/>
		<path d="M459.764,165.993v175.202c-0.3,9-2.1,17.101-5.4,24.001c-2.7,6-6.9,11.699-12.9,16.199c-6,4.801-14.1,7.5-24.9,7.5
			c-10.8,0-19.2-2.699-25.2-7.5c-6-4.5-9.9-10.199-12.6-16.199c-3.3-6.9-5.1-15.001-5.4-24.001V165.993h32.4v175.202
			c0,6.3,1.5,10.5,4.5,13.8c1.5,1.5,3.6,2.4,6.3,2.4c5.7,0,8.4-3.6,9.6-8.1c0.9-2.101,1.2-4.801,1.2-8.101V165.993H459.764z"/>
		<path d="M483.462,165.993h32.4v190.502h42.9v30h-75.301V165.993z"/>
		<path d="M560.562,199.293v-33.3h93.601v33.3h-30.6v187.202h-32.4V199.293H560.562z"/>
		<path d="M666.76,165.993h74.101v33.3h-41.7v57.901h30v35.4h-30v60.601h41.7v33.3H666.76V165.993z"/>
	</g>
	<g>
	</g>
	<g>
	</g>
	<g>
	</g>
	<g>
	</g>
	<g>
	</g>
	<g>
	</g>
</g>
</svg>
