<?xml version="1.0" encoding="utf-8"?>
<!-- Generator: Adobe Illustrator 16.0.0, SVG Export Plug-In . SVG Version: 6.00 Build 0)  -->
<!DOCTYPE svg PUBLIC "-//W3C//DTD SVG 1.1//EN" "http://www.w3.org/Graphics/SVG/1.1/DTD/svg11.dtd">
<svg version="1.1" xmlns="http://www.w3.org/2000/svg" xmlns:xlink="http://www.w3.org/1999/xlink" x="0px" y="0px"
	 width="848.316px" height="411.291px" viewBox="0 0 848.316 411.291" enable-background="new 0 0 848.316 411.291"
	 xml:space="preserve">
<g id="Calque_1">
	<g>
		<rect x="12.902" y="5.645" fill="none" width="282.259" height="156.452"/>
		<path fill="#FFFFFF" stroke="#000000" stroke-width="3" stroke-miterlimit="10" d="M20.902,5.644h21.6c9.4,0,18.8,2.4,26,9.2
			s12,18,12,34.799s-4.8,27.8-12,34.6s-16.6,9.6-26,9.6v58.799h-21.6V5.644z M42.502,71.843c6.6,0,10.8-1.2,13.2-4.6
			c2.4-3.2,3-8.6,3-16.799c0-8.2-0.6-14-3-17.6c-2.4-3.6-6.6-5.2-13.2-5.2V71.843z"/>
		<path fill="#FFFFFF" stroke="#000000" stroke-width="3" stroke-miterlimit="10" d="M85.3,152.642L107.5,5.644h26.399l22.2,146.998
			h-21l-4-30h-20.8l-4,30H85.3z M121.9,53.443l-0.6-3.8h-1.2l-0.6,3.8l-6.2,46.399h14.8L121.9,53.443z"/>
		<path fill="#FFFFFF" stroke="#000000" stroke-width="3" stroke-miterlimit="10" d="M199.899,45.043c0-4.8-0.2-10.2-1.6-14.4
			c-1.4-4-3.6-6.8-7-6.8c-5.6,0.2-7.399,6-7.399,14.6c0,5,2.2,10.2,5.4,15.8c3.2,5.6,7.4,11.4,11.6,17.6c5,7.4,10,15,13.8,22.4
			s6.4,15,6.4,23c0,9.8-1.6,19-6.2,25.8c-4.6,6.8-12,11.2-23.8,11.2c-13.8,0-21.6-5.2-26-13.2c-4.4-8-5.4-18.6-5.4-29.6l21.2-2
			c0,6.2,0.2,12.4,1.8,17c1.4,4.8,3.8,8,8.4,8c6.4,0,8.8-6.8,8.8-16.2c0-4.8-2.4-10.4-5.6-16.2c-1.8-2.8-3.6-5.8-5.6-8.8
			c-4.2-6-8.8-12.8-13.6-20.2c-4.8-7.4-8.4-15-10.6-22.8c-1.2-3.8-1.8-7.8-1.8-11.8c0-8,1.8-16.6,6.4-23.2
			c4.6-6.4,11.6-11,21.799-11.2c13-0.2,20.6,5.2,24.8,13c4.2,8,5.4,17.8,5.4,26L199.899,45.043z"/>
		<path fill="#FFFFFF" stroke="#000000" stroke-width="3" stroke-miterlimit="10" d="M268.497,45.043c0-4.8-0.2-10.2-1.6-14.4
			c-1.4-4-3.6-6.8-7-6.8c-5.6,0.2-7.399,6-7.399,14.6c0,5,2.2,10.2,5.4,15.8c3.2,5.6,7.4,11.4,11.6,17.6c5,7.4,10,15,13.8,22.4
			s6.4,15,6.4,23c0,9.8-1.6,19-6.2,25.8c-4.6,6.8-12,11.2-23.8,11.2c-13.8,0-21.6-5.2-26-13.2c-4.4-8-5.4-18.6-5.4-29.6l21.2-2
			c0,6.2,0.2,12.4,1.8,17c1.4,4.8,3.8,8,8.4,8c6.4,0,8.8-6.8,8.8-16.2c0-4.8-2.4-10.4-5.6-16.2c-1.8-2.8-3.6-5.8-5.6-8.8
			c-4.2-6-8.8-12.8-13.6-20.2c-4.8-7.4-8.4-15-10.6-22.8c-1.2-3.8-1.8-7.8-1.8-11.8c0-8,1.8-16.6,6.4-23.2
			c4.6-6.4,11.6-11,21.799-11.2c13-0.2,20.6,5.2,24.8,13c4.2,8,5.4,17.8,5.4,26L268.497,45.043z"/>
	</g>
</g>
<g id="Calque_2">
	<g>
		<rect x="68.273" y="186" fill="none" width="779.306" height="222.065"/>
		<path fill="none" stroke="#D1D3D4" stroke-width="3" stroke-miterlimit="10" d="M210.434,233.693v-20.7
			c13.5-2.7,21.6-9.6,27.3-15.6c3-3.6,5.4-7.5,7.2-11.4h19.5v220.502h-32.4V233.693H210.434z"/>
		<path fill="none" stroke="#D1D3D4" stroke-width="3" stroke-miterlimit="10" d="M324.43,376.795c6.3,0.898,11.1-0.601,14.7-5.4
			c1.8-2.1,2.7-5.7,2.7-10.801V185.993h32.4v179.702c0,11.999-3,23.101-10.5,31.2s-20.101,12.9-39.301,11.699V376.795z"/>
		<path fill="none" stroke="#D1D3D4" stroke-width="3" stroke-miterlimit="10" d="M481.026,361.195c-0.3,9-2.1,17.101-5.399,24.001
			c-2.701,6-6.9,11.699-12.9,16.199c-6,4.801-14.1,7.5-24.9,7.5s-19.2-2.699-25.2-7.5c-6-4.5-9.9-10.199-12.6-16.199
			c-3.3-6.9-5.1-15.001-5.4-24.001V231.293c0.3-8.7,2.1-16.8,5.4-23.7c2.7-6,6.6-12,12.6-16.5s14.4-7.5,25.2-7.5s18.9,3,24.9,7.5
			s10.2,10.5,12.9,16.5c3.3,6.9,5.1,15,5.399,23.7V361.195z M448.626,231.293c0-6-1.2-10.2-4.2-13.8c-1.5-1.5-3.9-2.4-6.6-2.4
			c-5.7,0-8.4,4.2-9.6,8.1c-0.9,2.4-1.2,5.1-1.2,8.1v129.901c0,6.3,1.5,10.5,4.5,13.8c1.5,1.5,3.6,2.4,6.3,2.4
			c5.7,0,8.4-3.6,9.6-8.1c0.9-2.101,1.2-4.801,1.2-8.101V231.293z"/>
		<path fill="none" stroke="#D1D3D4" stroke-width="3" stroke-miterlimit="10" d="M589.023,185.993v175.202
			c-0.301,9-2.1,17.101-5.4,24.001c-2.699,6-6.9,11.699-12.9,16.199c-6,4.801-14.1,7.5-24.9,7.5c-10.799,0-19.199-2.699-25.199-7.5
			c-6-4.5-9.9-10.199-12.601-16.199c-3.3-6.9-5.101-15.001-5.399-24.001V185.993h32.4v175.202c0,6.3,1.5,10.5,4.5,13.8
			c1.5,1.5,3.6,2.4,6.299,2.4c5.701,0,8.4-3.6,9.601-8.1c0.9-2.101,1.2-4.801,1.2-8.101V185.993H589.023z"/>
		<path fill="none" stroke="#D1D3D4" stroke-width="3" stroke-miterlimit="10" d="M670.622,406.495l-16.8-93h-8.7v93h-32.4V185.993
			h32.4c38.7,0,55.2,21.9,55.2,63.601c0,21.9-5.699,41.7-18,50.1l20.7,106.801H670.622z M645.122,283.494c4.5,0,10.5-0.6,15.3-4.8
			c4.801-4.2,8.7-12.3,8.7-27.9s-3.899-24-8.7-28.2c-4.8-4.2-10.8-4.5-15.3-4.5V283.494z"/>
	</g>
	<g>
		<rect x="60.491" y="176" fill="none" width="779.307" height="221.905"/>
		<path fill="#FFFFFF" stroke="#939598" stroke-width="3" stroke-miterlimit="10" d="M202.652,223.693v-20.7
			c13.5-2.7,21.6-9.6,27.3-15.6c3-3.6,5.4-7.5,7.2-11.4h19.5v220.502h-32.4V223.693H202.652z"/>
		<path fill="#FFFFFF" stroke="#939598" stroke-width="3" stroke-miterlimit="10" d="M316.647,366.795
			c6.3,0.898,11.1-0.601,14.7-5.4c1.8-2.1,2.7-5.7,2.7-10.801V175.993h32.4v179.702c0,11.999-3,23.101-10.5,31.2
			s-20.101,12.9-39.301,11.699V366.795z"/>
		<path fill="#FFFFFF" stroke="#939598" stroke-width="3" stroke-miterlimit="10" d="M473.244,351.195c-0.3,9-2.1,17.101-5.4,24.001
			c-2.7,6-6.9,11.699-12.9,16.199c-6,4.801-14.1,7.5-24.9,7.5s-19.2-2.699-25.2-7.5c-6-4.5-9.9-10.199-12.6-16.199
			c-3.3-6.9-5.1-15.001-5.4-24.001V221.293c0.3-8.7,2.1-16.8,5.4-23.7c2.7-6,6.6-12,12.6-16.5s14.4-7.5,25.2-7.5s18.9,3,24.9,7.5
			s10.2,10.5,12.9,16.5c3.3,6.9,5.1,15,5.4,23.7V351.195z M440.844,221.293c0-6-1.2-10.2-4.2-13.8c-1.5-1.5-3.9-2.4-6.6-2.4
			c-5.7,0-8.4,4.2-9.6,8.1c-0.9,2.4-1.2,5.1-1.2,8.1v129.901c0,6.3,1.5,10.5,4.5,13.8c1.5,1.5,3.6,2.4,6.3,2.4
			c5.7,0,8.4-3.6,9.6-8.1c0.9-2.101,1.2-4.801,1.2-8.101V221.293z"/>
		<path fill="#FFFFFF" stroke="#939598" stroke-width="3" stroke-miterlimit="10" d="M581.241,175.993v175.202
			c-0.3,9-2.101,17.101-5.399,24.001c-2.701,6-6.9,11.699-12.9,16.199c-6,4.801-14.101,7.5-24.9,7.5
			c-10.801,0-19.201-2.699-25.201-7.5c-6-4.5-9.899-10.199-12.6-16.199c-3.3-6.9-5.1-15.001-5.4-24.001V175.993h32.4v175.202
			c0,6.3,1.5,10.5,4.5,13.8c1.5,1.5,3.601,2.4,6.301,2.4c5.699,0,8.4-3.6,9.6-8.1c0.9-2.101,1.2-4.801,1.2-8.101V175.993H581.241z"
			/>
		<path fill="#FFFFFF" stroke="#939598" stroke-width="3" stroke-miterlimit="10" d="M662.84,396.495l-16.8-93h-8.7v93h-32.4
			V175.993h32.4c38.7,0,55.2,21.9,55.2,63.601c0,21.9-5.699,41.7-18,50.1l20.7,106.801H662.84z M637.34,273.494
			c4.5,0,10.5-0.6,15.3-4.8c4.801-4.2,8.7-12.3,8.7-27.9s-3.899-24-8.7-28.2c-4.8-4.2-10.8-4.5-15.3-4.5V273.494z"/>
	</g>
	<g>
		<rect x="52.709" y="166" fill="none" width="779.306" height="221.905"/>
		<path d="M194.87,213.693v-20.7c13.5-2.7,21.6-9.6,27.3-15.6c3-3.6,5.4-7.5,7.2-11.4h19.5v220.502h-32.4V213.693H194.87z"/>
		<path d="M308.865,356.795c6.3,0.898,11.1-0.601,14.7-5.4c1.8-2.1,2.7-5.7,2.7-10.801V165.993h32.4v179.702
			c0,11.999-3,23.101-10.5,31.2s-20.101,12.9-39.301,11.699V356.795z"/>
		<path d="M465.462,341.195c-0.3,9-2.1,17.101-5.4,24.001c-2.7,6-6.9,11.699-12.9,16.199c-6,4.801-14.1,7.5-24.9,7.5
			s-19.2-2.699-25.2-7.5c-6-4.5-9.9-10.199-12.6-16.199c-3.3-6.9-5.1-15.001-5.4-24.001V211.293c0.3-8.7,2.1-16.8,5.4-23.7
			c2.7-6,6.6-12,12.6-16.5s14.4-7.5,25.2-7.5s18.9,3,24.9,7.5s10.2,10.5,12.9,16.5c3.3,6.9,5.1,15,5.4,23.7V341.195z
			 M433.062,211.293c0-6-1.2-10.2-4.2-13.8c-1.5-1.5-3.9-2.4-6.6-2.4c-5.7,0-8.4,4.2-9.6,8.1c-0.9,2.4-1.2,5.1-1.2,8.1v129.901
			c0,6.3,1.5,10.5,4.5,13.8c1.5,1.5,3.6,2.4,6.3,2.4c5.7,0,8.4-3.6,9.6-8.1c0.9-2.101,1.2-4.801,1.2-8.101V211.293z"/>
		<path d="M573.459,165.993v175.202c-0.301,9-2.1,17.101-5.4,24.001c-2.699,6-6.9,11.699-12.9,16.199c-6,4.801-14.1,7.5-24.9,7.5
			c-10.799,0-19.199-2.699-25.199-7.5c-6-4.5-9.9-10.199-12.601-16.199c-3.3-6.9-5.101-15.001-5.399-24.001V165.993h32.4v175.202
			c0,6.3,1.5,10.5,4.5,13.8c1.5,1.5,3.6,2.4,6.299,2.4c5.701,0,8.4-3.6,9.601-8.1c0.9-2.101,1.2-4.801,1.2-8.101V165.993H573.459z"
			/>
		<path d="M655.058,386.495l-16.8-93h-8.7v93h-32.4V165.993h32.4c38.7,0,55.2,21.9,55.2,63.601c0,21.9-5.699,41.7-18,50.1
			l20.7,106.801H655.058z M629.558,263.494c4.5,0,10.5-0.6,15.3-4.8c4.801-4.2,8.7-12.3,8.7-27.9s-3.899-24-8.7-28.2
			c-4.8-4.2-10.8-4.5-15.3-4.5V263.494z"/>
	</g>
	<g>
	</g>
	<g>
	</g>
	<g>
	</g>
	<g>
	</g>
	<g>
	</g>
	<g>
	</g>
</g>
</svg>
